<?xml version="1.0" standalone="no"?>
<!DOCTYPE svg PUBLIC "-//W3C//DTD SVG 20010904//EN"
 "http://www.w3.org/TR/2001/REC-SVG-20010904/DTD/svg10.dtd">
<svg version="1.0" xmlns="http://www.w3.org/2000/svg"
 width="303.000000pt" height="166.000000pt" viewBox="0 0 303.000000 166.000000"
 preserveAspectRatio="xMidYMid meet">

<g transform="translate(0.000000,166.000000) scale(0.100000,-0.100000)"
fill="#000000" stroke="none">
<path d="M0 1490 l0 -170 1515 0 1515 0 0 170 0 170 -1515 0 -1515 0 0 -170z
m944 124 c34 -13 12 -74 -26 -74 -19 0 -20 3 -20 45 0 14 0 27 1 30 1 7 26 6
45 -1z m284 -67 c12 -3 11 -5 -5 -6 -21 -1 -23 3 -21 42 l1 42 4 -37 c3 -24
10 -38 21 -41z m509 57 c4 -11 -1 -22 -13 -31 -10 -8 -18 -19 -16 -24 1 -5 -2
-9 -8 -9 -5 0 -10 18 -10 40 0 34 3 40 20 40 11 0 23 -7 27 -16z m307 -33 c1
-17 -1 -31 -6 -31 -4 0 -8 3 -9 8 0 4 -2 16 -4 26 -4 21 4 41 12 32 3 -2 6
-18 7 -35z m-1867 -12 l2 -24 -8 25 -9 25 -2 -25 c-1 -14 -1 -29 0 -35 1 -5
-2 -6 -7 -2 -4 5 -8 21 -9 37 -2 36 30 35 33 -1z m831 -12 c15 -4 15 -5 1 -6
-22 -1 -43 25 -32 41 6 9 9 7 11 -9 2 -12 11 -24 20 -26z m9 21 c-3 -8 -6 -5
-6 6 -1 11 2 17 5 13 3 -3 4 -12 1 -19z m36 3 c-3 -13 1 -21 14 -25 15 -4 15
-5 -2 -3 -20 2 -36 47 -17 47 6 0 8 -9 5 -19z m24 -3 c-3 -8 -6 -5 -6 6 -1 11
2 17 5 13 3 -3 4 -12 1 -19z m80 6 c2 -7 -10 -22 -27 -34 l-30 -21 0 36 c0 34
2 36 27 33 14 -2 28 -8 30 -14z m143 6 c0 -5 -7 -7 -15 -4 -9 4 -15 0 -15 -9
0 -8 6 -18 13 -20 7 -4 8 -6 1 -6 -16 -1 -37 26 -29 39 8 13 45 13 45 0z m58
-18 c3 -16 -2 -22 -17 -22 -23 0 -36 16 -21 25 5 3 10 1 10 -4 0 -6 5 -11 10
-11 17 0 11 28 -7 34 -14 4 -14 4 2 3 12 -1 21 -11 23 -25z m45 16 c-6 -7 -13
-20 -16 -28 -3 -9 -6 -3 -6 13 -1 19 4 27 15 27 12 0 14 -4 7 -12z m75 -15 c2
-13 -1 -23 -7 -23 -6 0 -11 9 -11 20 0 27 -18 25 -22 -2 -3 -21 -4 -20 -10 5
-5 26 -3 28 21 25 18 -2 27 -10 29 -25z m32 0 c0 -29 -12 -24 -17 7 -2 11 2
20 7 20 6 0 10 -12 10 -27z m68 0 c2 -13 -1 -23 -6 -23 -6 0 -8 9 -5 20 4 14
0 20 -10 20 -9 0 -18 -10 -20 -22 -4 -19 -4 -18 -6 5 -1 24 2 28 22 25 14 -2
23 -11 25 -25z m67 8 c8 -28 -5 -51 -29 -50 -16 1 -17 2 -3 6 19 5 25 53 6 53
-7 0 -9 -9 -6 -22 5 -19 5 -20 -10 -6 -8 9 -12 21 -9 27 11 18 44 13 51 -8z
m139 11 c-7 -4 -14 -16 -17 -27 -4 -15 -5 -14 -6 8 -1 20 4 27 17 27 11 0 13
-3 6 -8z m64 -14 c-3 -25 -17 -32 -37 -19 -19 12 -6 41 19 41 16 0 21 -5 18
-22z m40 -10 c-2 -17 -8 -33 -14 -35 -6 -2 -8 10 -6 32 5 44 24 47 20 3z m62
22 c0 -5 -7 -7 -15 -4 -9 4 -15 0 -15 -9 0 -9 8 -18 18 -20 14 -4 14 -5 1 -6
-20 -1 -43 24 -34 39 8 13 45 13 45 0z m43 3 c-16 -6 -17 -33 -1 -33 6 0 8 -3
5 -6 -11 -11 -36 16 -30 32 3 8 13 14 22 13 10 0 11 -2 4 -6z m-1903 -50 c0
-20 -3 -24 -11 -16 -7 7 -9 19 -6 27 10 24 17 19 17 -11z m746 -151 c-12 -11
-15 5 -8 44 l7 39 3 -39 c2 -21 1 -41 -2 -44z m249 65 c-17 -13 -17 -14 4 -20
21 -5 31 -47 11 -47 -5 0 -10 9 -10 20 0 28 -20 25 -21 -2 l0 -23 -10 23 c-11
28 4 62 28 62 15 0 15 -2 -2 -13z m573 -27 c-1 -22 -5 -40 -10 -40 -4 0 -7 18
-6 40 1 22 5 40 10 40 4 0 7 -18 6 -40z m-1244 -4 c2 -15 -1 -29 -5 -32 -5 -3
-9 12 -9 32 0 41 10 41 14 0z m379 27 c-28 -5 -36 -28 -17 -48 14 -13 14 -15
0 -15 -20 0 -31 37 -16 55 7 8 22 14 34 14 l21 -2 -22 -4z m980 -3 c-13 -6
-23 -18 -23 -30 0 -14 7 -20 23 -21 19 -1 20 -2 3 -6 -12 -3 -25 2 -32 12 -18
24 -1 55 29 54 l22 0 -22 -9z m44 -42 c-2 -13 -4 -5 -4 17 -1 22 1 32 4 23 2
-10 2 -28 0 -40z m48 42 c-19 -8 -19 -8 5 -18 18 -8 20 -11 8 -11 -10 -1 -18
-8 -18 -16 0 -8 -4 -15 -10 -15 -5 0 -10 16 -10 35 0 30 3 35 23 34 21 0 21
-1 2 -9z m82 -25 c7 -21 7 -35 2 -35 -5 0 -12 15 -16 33 l-7 32 -8 -32 c-5
-18 -13 -33 -17 -33 -5 0 -4 16 2 35 6 19 16 35 22 35 6 0 16 -16 22 -35z m41
0 c2 -19 -2 -35 -8 -35 -5 0 -10 16 -10 35 0 19 4 35 8 35 4 0 9 -16 10 -35z
m38 -9 c0 -24 -3 -33 -9 -27 -14 14 -17 73 -3 68 5 -2 11 -20 12 -41z m93 27
c0 -10 -4 -27 -9 -38 -7 -16 -9 -13 -9 18 -1 20 4 37 9 37 6 0 10 -8 9 -17z
m176 -17 c0 -18 -6 -31 -15 -33 -12 -4 -12 -3 -2 5 18 12 11 46 -10 50 -12 2
-18 -6 -21 -30 -4 -33 -4 -33 -5 5 -2 36 0 38 26 35 22 -2 27 -8 27 -32z
m-1032 17 c4 -3 2 -13 -5 -20 -9 -11 -9 -17 3 -25 12 -8 12 -9 -1 -5 -8 2 -16
16 -18 30 -3 26 7 35 21 20z m362 -30 c2 -23 -1 -30 -11 -26 -17 6 -19 66 -3
61 7 -2 13 -18 14 -35z m537 8 c2 -17 1 -28 -4 -25 -8 5 -12 54 -4 54 2 0 6
-13 8 -29z m29 -18 c-9 -15 -10 -12 -10 17 0 29 1 32 10 18 7 -12 7 -24 0 -35z
m209 17 c0 -16 -4 -30 -8 -30 -6 0 -9 47 -3 58 5 10 11 -3 11 -28z m223 23 c4
-3 2 -12 -4 -19 -7 -8 -7 -14 1 -19 5 -3 10 -11 10 -17 0 -7 -6 -6 -15 2 -8 7
-15 23 -15 36 0 23 10 31 23 17z m-2109 -19 c3 -9 6 -21 5 -27 0 -7 -4 -4 -8
6 -9 25 -25 23 -33 -5 -6 -22 -6 -22 -7 4 -1 23 8 35 30 37 4 1 10 -6 13 -15z
m64 -18 c2 -18 0 -26 -7 -21 -6 3 -9 11 -6 16 4 5 2 9 -4 9 -5 0 -11 -6 -14
-12 -2 -7 -8 -9 -13 -5 -5 5 -1 13 10 19 15 8 16 12 5 20 -11 7 -9 8 6 6 14
-2 21 -12 23 -32z m70 -5 c-3 -30 -7 -36 -28 -38 -21 -2 -22 -1 -6 5 21 9 30
40 16 57 -7 8 -5 12 6 12 11 0 14 -9 12 -36z m60 21 c2 -7 -4 -12 -13 -12 -9
0 -13 -4 -10 -10 3 -5 1 -10 -4 -10 -12 0 -15 33 -4 44 9 9 26 2 31 -12z m190
-16 c2 -18 0 -26 -7 -21 -6 3 -9 11 -6 16 4 5 2 9 -4 9 -5 0 -12 -6 -14 -12
-4 -10 -6 -10 -6 0 -1 7 7 16 16 19 15 6 15 7 -3 15 -18 8 -18 8 1 5 14 -1 21
-11 23 -31z m51 -9 c1 -5 -6 -1 -15 7 -8 9 -12 21 -8 28 5 8 10 6 15 -8 4 -10
8 -23 8 -27z m42 34 c-11 -7 -10 -11 5 -19 10 -6 16 -14 12 -17 -10 -10 -41
23 -33 35 3 5 12 10 18 10 8 0 7 -3 -2 -9z m47 -16 c1 -13 -3 -27 -8 -30 -11
-7 -14 38 -3 48 9 9 8 10 11 -18z m122 21 c0 -2 -7 -7 -16 -10 -8 -3 -12 -2
-9 4 6 10 25 14 25 6z m58 -27 c2 -20 1 -21 -8 -9 -9 11 -13 12 -17 3 -2 -7
-9 -13 -15 -13 -6 0 -4 8 5 18 10 10 14 22 10 27 -5 4 -1 6 7 3 8 -2 16 -15
18 -29z m82 6 c0 -14 -4 -25 -9 -25 -5 0 -8 11 -8 25 0 14 3 25 8 25 5 0 9
-11 9 -25z m63 -16 c-7 -7 -12 -3 -15 16 -5 25 -4 25 10 11 12 -11 13 -19 5
-27z m70 28 c3 -8 1 -20 -4 -28 -7 -11 -9 -11 -9 4 0 9 -4 17 -10 17 -5 0 -10
-7 -10 -15 0 -8 -4 -15 -10 -15 -17 0 -11 28 8 39 23 14 29 13 35 -2z m57 -15
c1 -12 5 -10 15 8 14 25 20 16 9 -14 -9 -24 -31 -19 -36 9 -3 13 -1 22 3 19 5
-3 9 -13 9 -22z m200 9 c6 -11 6 -22 1 -25 -5 -3 -11 5 -13 19 -6 30 -2 32 12
6z m671 -9 c5 -12 4 -24 -1 -27 -6 -4 -10 1 -10 9 0 19 -16 21 -23 4 -4 -10
-6 -10 -6 0 -1 7 6 15 15 19 13 5 13 8 2 15 -11 8 -10 9 1 6 8 -2 18 -14 22
-26z m109 -3 c0 -10 -5 -19 -11 -19 -5 0 -7 5 -4 10 3 6 -1 10 -10 10 -9 0
-13 -4 -10 -10 3 -5 1 -10 -4 -10 -16 0 -13 20 4 26 8 4 12 10 9 15 -3 5 2 6
10 3 9 -3 16 -15 16 -25z m35 22 c-3 -5 -1 -12 5 -16 5 -3 10 -11 10 -16 0 -6
-7 -3 -16 5 -13 14 -12 36 2 36 3 0 3 -4 -1 -9z m75 -6 c10 -13 9 -15 -9 -15
-12 0 -19 -4 -16 -10 7 -11 -8 -14 -18 -4 -8 8 10 44 22 44 5 0 14 -7 21 -15z
m-2130 -15 c0 -11 -4 -20 -10 -20 -5 0 -10 9 -10 20 0 11 5 20 10 20 6 0 10
-9 10 -20z m163 0 c3 -11 1 -20 -4 -20 -5 0 -9 9 -9 20 0 11 2 20 4 20 2 0 6
-9 9 -20z m720 -20 c-7 -8 -22 24 -16 34 4 5 10 1 13 -10 4 -10 6 -21 3 -24z
m211 16 c-3 -9 -10 -16 -15 -16 -5 0 -4 9 3 20 14 22 21 20 12 -4z m33 -8 c-3
-7 -5 -2 -5 12 0 14 2 19 5 13 2 -7 2 -19 0 -25z m490 16 c-3 -3 -12 -4 -19
-1 -8 3 -5 6 6 6 11 1 17 -2 13 -5z m-922 -14 c3 -5 2 -10 -4 -10 -5 0 -13 5
-16 10 -3 6 -2 10 4 10 5 0 13 -4 16 -10z"/>
<path d="M910 1580 c0 -19 5 -30 14 -30 19 0 29 30 15 46 -18 22 -29 16 -29
-16z"/>
<path d="M1706 1595 c-3 -9 0 -15 9 -15 8 0 15 7 15 15 0 8 -4 15 -9 15 -5 0
-11 -7 -15 -15z"/>
<path d="M1117 1573 c-12 -11 -8 -23 8 -23 8 0 15 7 15 15 0 16 -12 20 -23 8z"/>
<path d="M1812 1568 c6 -18 28 -21 28 -4 0 9 -7 16 -16 16 -9 0 -14 -5 -12
-12z"/>
<path d="M0 725 l0 -535 745 0 745 0 0 535 0 535 -745 0 -745 0 0 -535z m1440
400 l0 -85 -95 0 -96 0 22 30 c18 24 25 27 41 19 11 -6 23 -7 26 -3 4 4 1 9
-6 11 -10 4 -8 9 5 19 16 12 16 15 3 24 -11 7 -18 5 -26 -5 -6 -8 -15 -11 -19
-7 -5 4 -5 2 -2 -4 4 -7 -9 -24 -28 -38 -19 -15 -35 -22 -35 -16 0 6 -5 8 -12
4 -7 -5 -5 -11 7 -21 18 -12 18 -13 -3 -13 -21 0 -22 4 -22 85 l0 85 120 0
120 0 0 -85z m-1375 65 c-3 -5 -13 -10 -21 -10 -8 0 -14 5 -14 10 0 6 9 10 21
10 11 0 17 -4 14 -10z m416 -8 c-13 -9 -38 -22 -55 -28 -18 -7 -30 -18 -30
-27 1 -10 -4 -13 -14 -10 -10 4 -13 2 -8 -5 4 -7 3 -12 -2 -12 -15 0 -9 54 8
67 8 6 11 15 7 19 -4 5 -12 2 -17 -6 -8 -13 -10 -12 -10 3 0 15 10 17 73 16
71 0 72 0 48 -17z m119 8 c0 -5 -4 -10 -9 -10 -5 0 -8 -8 -7 -17 1 -12 -8 -18
-26 -19 -16 -2 -28 2 -29 9 0 7 -2 20 -4 30 -3 14 4 17 36 17 21 0 39 -4 39
-10z m270 -5 c0 -11 -8 -14 -27 -11 -16 3 -70 6 -120 8 -51 2 -93 6 -93 10 0
5 54 8 120 8 101 0 120 -2 120 -15z m150 5 c-13 -9 -7 -14 12 -11 4 0 5 -6 2
-14 -5 -11 -2 -13 10 -9 11 4 26 -2 40 -15 15 -14 29 -19 40 -15 17 6 35 -9
36 -28 0 -5 -26 -8 -57 -8 -32 -1 -78 -5 -103 -10 -25 -4 -57 -6 -72 -3 -27 5
-28 8 -28 64 l0 59 68 0 c47 0 63 -3 52 -10z m-527 -47 c-1 -6 2 -25 7 -42 5
-17 5 -29 0 -26 -5 3 -10 0 -13 -7 -2 -7 -3 -5 -1 5 2 15 0 16 -12 6 -21 -17
-27 -6 -19 41 5 31 11 40 23 37 10 -2 16 -8 15 -14z m-305 -9 c39 -19 47 -30
26 -38 -23 -9 -81 3 -95 20 -9 11 -7 14 12 15 18 1 19 3 6 6 -10 3 -24 -1 -32
-7 -15 -12 -22 0 -8 13 11 12 59 7 91 -9z m653 -5 c42 -30 34 -51 -21 -54 -39
-3 -41 -2 -16 5 41 13 50 32 23 47 -26 14 -61 17 -53 4 7 -12 -28 -21 -55 -14
-20 5 -20 6 3 18 36 20 87 17 119 -6z m-764 -15 c0 -8 -10 -14 -24 -14 -16 0
-23 6 -23 19 0 14 6 17 23 14 13 -3 24 -11 24 -19z m601 -22 c2 -7 -7 -12 -22
-12 -27 0 -35 15 -13 23 17 7 30 3 35 -11z m-632 -27 c1 -14 -2 -22 -7 -19
-11 6 -12 44 -1 44 4 0 8 -11 8 -25z m672 0 c-3 -3 -25 -7 -49 -10 -32 -4 -38
-2 -24 4 21 10 82 15 73 6z m-631 -87 c2 -17 0 -19 -7 -8 -5 8 -6 18 -4 22 8
12 10 10 11 -14z m183 2 c0 -17 -6 -20 -37 -20 -70 1 -70 1 -59 -42 7 -28 7
-41 -2 -50 -9 -9 -12 -9 -12 3 0 12 -2 12 -10 -1 -7 -10 -8 5 -5 48 4 56 3 62
-15 62 -10 0 -22 5 -25 10 -4 6 25 10 79 10 80 0 86 -1 86 -20z m370 -56 c0
-88 -16 -92 -26 -5 l-6 58 -38 -10 c-29 -8 -36 -14 -32 -29 2 -10 7 -18 11
-18 3 0 7 -18 8 -40 l1 -40 -99 0 -99 0 0 80 0 80 140 0 140 0 0 -76z m140 64
c0 -8 3 -9 8 -3 9 13 86 19 78 7 -3 -6 2 -9 11 -8 13 1 18 -7 18 -27 l1 -27
-27 30 c-27 29 -47 41 -34 20 3 -5 2 -10 -3 -10 -6 0 -8 -8 -5 -18 2 -10 11
-19 19 -19 10 0 11 4 4 11 -13 13 -13 29 0 21 5 -3 19 -20 32 -37 12 -17 17
-28 10 -24 -7 4 -12 3 -12 -3 0 -6 -8 -7 -17 -4 -15 6 -16 4 -6 -9 7 -8 12
-17 10 -19 -1 -2 4 2 11 10 6 8 12 13 13 10 0 -2 2 -14 5 -26 3 -17 -1 -22
-19 -21 -12 1 -28 6 -36 12 -11 8 -13 8 -7 -1 5 -9 -1 -13 -18 -13 -14 0 -26
6 -26 13 0 6 -11 17 -23 23 -18 8 -24 8 -24 -2 0 -7 4 -11 9 -8 4 3 8 0 8 -6
0 -6 5 -8 10 -5 6 3 10 1 10 -4 0 -7 -24 -11 -60 -11 l-60 0 0 80 0 80 60 0
c41 0 60 -4 60 -12z m367 -3 c9 -25 -3 -28 -36 -10 -39 20 -39 25 -1 25 18 0
33 -6 37 -15z m293 -34 l0 -49 -30 11 c-23 9 -33 9 -38 1 -4 -6 -18 -15 -32
-19 -22 -6 -23 -6 -8 6 15 13 15 17 3 47 -13 29 -17 32 -35 22 -16 -8 -19 -15
-11 -24 6 -7 8 -16 4 -20 -4 -4 -1 -11 7 -16 11 -7 8 -10 -14 -10 -61 0 -14
-13 66 -17 82 -5 106 -11 79 -21 -11 -4 -11 -6 0 -13 8 -5 -30 -7 -91 -4 -137
7 -134 6 -142 19 -10 16 1 26 30 27 27 1 27 1 -3 8 -28 6 -30 10 -33 54 l-3
47 125 0 126 0 0 -49z m-1365 -1 c3 -5 1 -10 -4 -10 -6 0 -11 5 -11 10 0 6 2
10 4 10 3 0 8 -4 11 -10z m1053 -16 c2 -1 -5 -9 -14 -19 -13 -13 -19 -14 -25
-3 -6 10 -13 7 -30 -11 -14 -15 -24 -20 -27 -13 -2 7 -11 12 -20 13 -14 0 -13
2 3 10 16 7 12 8 -17 5 -29 -4 -37 -1 -41 14 -3 13 1 18 19 18 21 0 22 -2 9
-12 -12 -8 -3 -10 40 -8 37 3 58 9 62 18 4 12 8 12 22 2 9 -7 17 -13 19 -14z
m-188 6 c0 -5 -2 -10 -4 -10 -3 0 -8 5 -11 10 -3 6 -1 10 4 10 6 0 11 -4 11
-10z m-740 -220 l0 -80 -30 0 c-17 0 -33 6 -36 14 -3 9 -12 12 -22 9 -13 -6
-13 -8 4 -14 12 -5 1 -8 -33 -8 l-53 -1 0 80 0 80 85 0 85 0 0 -80z m270 73
c0 -5 -5 -15 -10 -23 -8 -13 -10 -12 -10 3 0 26 -23 20 -45 -13 -27 -40 -45
-46 -45 -14 0 17 4 23 13 18 10 -6 10 -4 0 7 -23 23 -14 29 42 29 30 0 55 -3
55 -7z m130 -73 l0 -80 -42 0 c-37 0 -46 5 -65 33 -13 18 -23 35 -23 38 0 2
20 4 45 4 26 0 44 4 42 10 -2 5 -20 8 -39 7 -42 -4 -52 7 -38 42 9 24 15 26
65 26 l55 0 0 -80z m290 65 c0 -8 -4 -15 -8 -15 -5 0 -9 7 -9 15 0 8 4 15 9
15 4 0 8 -7 8 -15z m280 -65 l0 -80 -125 0 -125 0 0 80 0 80 125 0 125 0 0
-80z m226 45 c3 -14 13 -25 21 -25 12 0 13 -3 3 -15 -6 -8 -9 -23 -5 -35 6
-19 5 -20 -13 -11 -16 8 -21 7 -26 -6 -4 -9 -9 -13 -13 -10 -3 4 -13 1 -21 -6
-13 -10 -14 -9 -7 3 6 12 5 13 -5 3 -10 -9 -16 -9 -26 2 -8 7 -14 19 -14 25 0
6 -5 8 -12 4 -7 -5 -9 -2 -5 8 3 9 0 21 -6 27 -8 8 -6 11 8 11 15 0 16 3 7 12
-18 18 -15 33 3 18 26 -21 77 -20 83 2 6 26 21 22 28 -7z m-571 -15 c3 -5 19
-7 35 -3 l30 6 0 -57 0 -56 -126 0 c-70 0 -123 4 -120 9 3 5 40 9 81 9 80 0
116 16 114 51 0 10 -3 8 -9 -6 -13 -33 -21 -28 -15 8 l6 31 -24 -28 c-23 -26
-25 -27 -48 -11 -22 16 -22 17 -4 18 11 1 25 1 32 0 6 -1 14 8 18 19 7 21 20
26 30 10z m-135 -37 c0 -13 -3 -14 -11 -6 -6 6 -19 9 -28 6 -14 -4 -14 -3 -1
6 22 16 40 13 40 -6z m-205 -55 c20 -17 19 -18 -13 -18 -29 0 -33 3 -31 23 2
12 0 29 -5 37 -5 8 0 6 10 -5 10 -11 28 -28 39 -37z m185 33 c0 -12 -20 -25
-27 -18 -7 7 6 27 18 27 5 0 9 -4 9 -9z m-287 -31 c-3 -11 -9 -20 -14 -20 -14
0 -11 28 4 33 6 3 13 6 14 6 0 1 -1 -8 -4 -19z m-125 -132 c-3 -69 -4 -72 -31
-79 -15 -4 -25 -4 -22 1 3 4 -4 10 -16 13 -16 4 -18 3 -8 -9 10 -12 -1 -14
-70 -14 l-81 0 0 80 0 79 116 0 116 0 -4 -71z m305 56 c20 -3 37 -12 37 -19 0
-16 -55 -21 -162 -17 -59 3 -78 7 -78 18 0 10 12 14 38 14 29 0 34 3 22 11
-15 11 59 7 143 -7z m114 -36 c-2 -13 -4 -5 -4 17 -1 22 1 32 4 23 2 -10 2
-28 0 -40z m63 42 c3 0 -3 -5 -12 -11 -10 -5 -18 -15 -18 -22 0 -7 4 -6 10 3
8 13 12 13 32 1 21 -13 22 -13 9 3 -19 22 -12 27 53 32 49 4 56 2 56 -13 -1
-32 -25 -53 -63 -53 -20 0 -38 -4 -41 -8 -3 -5 7 -7 22 -4 23 3 30 -2 44 -33
14 -31 14 -37 2 -42 -8 -3 -22 1 -31 8 -12 10 -15 10 -9 2 5 -10 -9 -13 -58
-13 -70 0 -78 6 -46 35 17 15 19 26 14 71 -7 55 -8 54 36 44z m470 -47 c0 -93
-5 -102 -52 -100 -22 1 -42 7 -45 14 -3 7 -9 10 -14 7 -5 -3 -6 2 -3 11 4 9
13 14 20 11 17 -6 18 8 4 34 -6 11 -16 18 -23 16 -6 -1 -9 -1 -4 1 19 11 4 28
-23 27 -48 -2 -50 -3 -50 -19 0 -8 -5 -15 -11 -15 -7 0 -9 -10 -5 -25 6 -22 3
-25 -21 -24 -19 1 -22 3 -10 6 18 5 18 6 -2 19 -12 9 -26 12 -31 9 -6 -4 -10
6 -10 24 0 61 0 61 146 61 l134 0 0 -57z m228 -25 l4 -78 -91 0 -91 0 0 80 0
81 88 -3 87 -3 3 -77z m-977 9 c-6 -8 -8 -16 -6 -19 3 -3 -6 -3 -21 0 -16 3
-25 1 -21 -5 3 -5 -1 -10 -9 -10 -25 0 -9 20 27 33 44 16 43 16 30 1z m74 -7
c29 -11 27 -25 -6 -33 -11 -3 -18 -3 -15 0 3 4 -1 15 -11 25 -18 20 -7 23 32
8z m552 -36 c-3 -3 -12 -4 -19 -1 -8 3 -5 6 6 6 11 1 17 -2 13 -5z m-947 -95
c32 0 33 -1 13 -11 -22 -11 -22 -11 -2 -27 18 -14 19 -19 7 -42 -8 -14 -19
-24 -27 -21 -10 3 -12 -1 -8 -17 3 -11 1 -21 -4 -21 -5 0 -9 5 -9 10 0 6 -9
10 -20 10 -14 0 -18 -5 -13 -17 6 -16 5 -16 -10 -4 -12 9 -16 24 -13 47 3 25
1 31 -10 27 -11 -4 -14 5 -14 37 l0 43 38 -7 c20 -3 53 -6 72 -7z m359 0 c65
-3 111 -16 111 -33 0 -4 -11 -6 -24 -4 -17 4 -23 1 -19 -9 6 -16 -9 -17 -26 0
-11 10 -12 8 -6 -11 6 -21 4 -23 -14 -17 -30 9 -26 -4 4 -15 14 -5 25 -16 25
-24 0 -9 14 -20 33 -25 l32 -9 -36 -1 c-35 -1 -70 22 -55 36 3 3 -3 12 -14 20
-10 7 -17 19 -14 27 11 28 -66 56 -94 34 -13 -11 -15 -10 -9 5 4 11 2 17 -8
17 -8 0 -15 5 -15 11 0 6 13 8 33 5 17 -2 61 -6 96 -7z m381 -69 l0 -80 -123
0 -123 0 2 78 c1 42 3 78 3 80 1 1 55 2 121 2 l120 0 0 -80z m110 65 c14 2 25
4 25 5 0 1 28 2 63 4 l63 2 -3 -76 -3 -75 -117 -3 -118 -3 0 36 c0 22 4 34 10
30 6 -3 10 -1 10 4 0 6 -4 11 -10 11 -5 0 -10 7 -10 15 0 8 5 15 10 15 6 0 10
6 10 13 0 20 22 38 34 28 6 -5 22 -7 36 -6z m450 -27 l0 -40 -37 6 c-30 4 -33
4 -15 -4 12 -5 22 -14 22 -20 0 -6 -4 -9 -9 -5 -6 3 -13 -1 -18 -9 -4 -8 -25
-17 -45 -21 -31 -6 -38 -4 -38 9 0 23 -15 20 -34 -6 -15 -22 -16 -22 -29 -5
-8 9 -22 17 -32 17 -14 0 -15 3 -5 15 8 10 31 15 66 15 31 0 54 4 54 10 0 7
-13 9 -32 6 -18 -3 -50 -8 -70 -11 -21 -3 -38 -11 -38 -18 0 -7 -4 -6 -10 3
-5 8 -10 34 -10 58 l0 42 140 -1 140 0 0 -41z m-970 -50 c0 -6 -7 -5 -15 2 -8
7 -15 17 -15 22 0 6 7 5 15 -2 8 -7 15 -17 15 -22z m-90 2 c0 -5 -5 -10 -11
-10 -5 0 -7 5 -4 10 3 6 8 10 11 10 2 0 4 -4 4 -10z m1060 -51 c0 -17 -7 -19
-87 -18 l-88 2 68 10 c37 5 67 12 67 16 0 4 9 7 20 8 14 1 20 -4 20 -18z
m-250 1 c0 -5 -7 -10 -15 -10 -8 0 -15 5 -15 10 0 6 7 10 15 10 8 0 15 -4 15
-10z"/>
<path d="M1415 1180 c3 -5 8 -10 11 -10 2 0 4 5 4 10 0 6 -5 10 -11 10 -5 0
-7 -4 -4 -10z"/>
<path d="M1362 1130 c-2 -25 1 -30 20 -29 20 0 21 1 4 8 -17 7 -17 8 -2 23 21
21 20 28 -2 28 -13 0 -18 -9 -20 -30z"/>
<path d="M953 1133 c-27 -10 -11 -22 26 -20 31 1 38 4 29 14 -11 13 -33 16
-55 6z"/>
<path d="M744 929 c-2 -29 10 -36 35 -20 11 7 9 10 -8 16 -12 3 -19 10 -16 15
3 5 2 11 -2 13 -5 3 -9 -8 -9 -24z"/>
<path d="M95 769 c-4 -12 -3 -25 3 -31 13 -13 44 -6 50 11 3 8 1 11 -4 8 -11
-6 -35 18 -27 27 4 3 1 6 -5 6 -6 0 -14 -9 -17 -21z m20 -9 c3 -5 1 -10 -4
-10 -6 0 -11 5 -11 10 0 6 2 10 4 10 3 0 8 -4 11 -10z"/>
<path d="M70 691 c0 -12 5 -21 10 -21 6 0 10 6 10 14 0 8 -4 18 -10 21 -5 3
-10 -3 -10 -14z"/>
<path d="M1033 762 c-7 -5 -7 -10 1 -18 9 -8 15 -7 23 2 9 9 9 13 -1 17 -7 3
-18 2 -23 -1z"/>
<path d="M174 525 c-17 -13 -17 -14 -2 -15 9 0 20 5 23 11 11 17 0 20 -21 4z"/>
<path d="M227 526 c-4 -10 -1 -13 8 -9 8 3 12 9 9 14 -7 12 -11 11 -17 -5z"/>
<path d="M128 453 c6 -2 18 -2 25 0 6 3 1 5 -13 5 -14 0 -19 -2 -12 -5z"/>
<path d="M1336 564 c-9 -22 -8 -26 6 -18 6 4 17 -1 24 -10 15 -21 25 -8 17 22
-6 25 -38 29 -47 6z"/>
<path d="M1358 504 c-9 -8 3 -44 14 -44 5 0 7 4 3 9 -3 5 -1 12 5 16 5 3 10
10 10 16 0 10 -23 13 -32 3z"/>
<path d="M1275 481 c-8 -15 35 -35 47 -23 6 6 7 15 4 21 -9 14 -43 14 -51 2z"/>
<path d="M528 503 c7 -3 16 -2 19 1 4 3 -2 6 -13 5 -11 0 -14 -3 -6 -6z"/>
<path d="M75 290 c3 -5 8 -10 11 -10 2 0 4 5 4 10 0 6 -5 10 -11 10 -5 0 -7
-4 -4 -10z"/>
<path d="M990 349 c0 -5 5 -7 10 -4 6 3 10 8 10 11 0 2 -4 4 -10 4 -5 0 -10
-5 -10 -11z"/>
<path d="M1335 320 c4 -6 11 -8 16 -5 14 9 11 15 -7 15 -8 0 -12 -5 -9 -10z"/>
<path d="M1250 290 c-9 -6 -10 -10 -3 -10 6 0 15 5 18 10 8 12 4 12 -15 0z"/>
<path d="M1510 725 l0 -535 760 0 760 0 0 535 0 535 -760 0 -760 0 0 -535z
m630 459 c0 -13 -7 -15 -37 -10 -21 4 -75 7 -120 8 -129 3 -98 18 37 18 103 0
120 -2 120 -16z m231 -6 l2 -23 4 23 c4 18 11 22 39 22 33 0 34 -1 29 -36 -6
-47 -9 -50 -40 -36 -14 6 -25 9 -25 6 0 -3 15 -11 33 -19 25 -11 27 -15 12
-16 -11 -1 -24 -1 -28 0 -4 1 -10 -6 -13 -14 -8 -20 -70 -20 -78 0 -8 21 -23
19 -29 -5 -3 -11 -10 -20 -17 -20 -6 0 -9 4 -6 9 3 5 0 9 -7 8 -50 -2 -64 17
-24 33 21 8 21 9 -5 9 -20 1 -28 -4 -28 -16 0 -15 -2 -16 -10 -3 -5 8 -10 34
-10 58 l0 42 100 0 c97 0 100 -1 101 -22z m339 2 c0 -21 -17 -19 -55 7 -18 12
-16 13 18 13 30 0 37 -4 37 -20z m270 11 c0 -6 -4 -12 -8 -15 -5 -3 -9 1 -9 9
0 8 4 15 9 15 4 0 8 -4 8 -9z m-22 -40 c21 8 22 6 22 -51 l0 -60 -120 0 c-73
0 -120 4 -120 10 0 6 30 10 70 10 72 0 120 18 120 44 0 14 -28 15 -48 2 -17
-10 -65 1 -57 14 3 5 16 7 30 4 20 -3 26 1 31 21 6 24 8 25 28 12 14 -10 29
-11 44 -6z m-908 -16 c0 -19 -33 -27 -61 -16 -15 6 -18 10 -8 10 9 1 22 7 29
15 13 17 40 10 40 -9z m637 1 c-3 -6 -10 -10 -16 -8 -7 1 -10 -2 -7 -7 4 -5 2
-12 -4 -16 -5 -3 -10 -1 -10 4 0 20 -20 11 -30 -11 -5 -14 -9 -17 -10 -8 0 13
-1 13 -10 0 -6 -10 -10 -11 -10 -2 0 6 -8 13 -17 13 -10 1 -4 5 12 10 25 7 22
8 -17 5 -27 -2 -48 -1 -48 3 0 4 17 8 38 9 53 3 92 12 92 22 0 4 9 6 20 3 12
-3 19 -11 17 -17z m-1119 7 c-10 -2 -18 -11 -18 -18 0 -8 8 -19 18 -24 19 -12
12 -14 -12 -5 -16 6 -22 35 -9 47 3 4 13 6 22 6 13 -1 13 -2 -1 -6z m538 -8
c24 -18 7 -19 -26 0 -16 9 -19 14 -9 15 8 0 24 -7 35 -15z m440 7 c-5 -8 -66
-4 -66 4 0 2 16 4 36 4 19 0 33 -4 30 -8z m-916 -27 c0 -15 -6 -25 -14 -25
-20 0 -29 17 -15 26 8 4 9 3 5 -4 -4 -7 -2 -12 3 -12 15 0 14 27 -1 33 -8 3
-6 6 5 6 12 1 17 -7 17 -24z m44 17 c-7 -4 -14 -16 -17 -27 -4 -15 -5 -14 -6
8 -1 20 4 27 17 27 11 0 13 -3 6 -8z m1106 -11 c0 -5 -9 -7 -20 -4 -11 3 -20
7 -20 9 0 2 9 4 20 4 11 0 20 -4 20 -9z m-642 -36 c-1 -1 -13 -6 -26 -10 l-23
-7 23 27 c19 22 24 24 26 10 2 -9 2 -18 0 -20z m-188 10 c0 -16 -35 -21 -45
-6 -4 8 9 15 38 20 4 0 7 -6 7 -14z m808 -7 c-6 -18 -28 -21 -28 -4 0 9 7 16
16 16 9 0 14 -5 12 -12z m-685 -15 c-7 -2 -21 -2 -30 0 -10 3 -4 5 12 5 17 0
24 -2 18 -5z m127 -8 c0 -8 -7 -15 -15 -15 -8 0 -15 7 -15 15 0 8 7 15 15 15
8 0 15 -7 15 -15z m240 -5 c0 -19 -6 -20 -102 -19 -82 1 -95 3 -63 10 22 4 57
8 77 8 20 1 40 6 43 11 12 19 45 11 45 -10z m-441 6 c-2 -2 -24 -6 -49 -10
-31 -4 -40 -3 -30 4 13 9 89 15 79 6z m86 -76 c5 -8 11 -7 21 1 10 8 14 8 14
0 0 -6 9 -11 20 -11 12 0 20 -7 20 -16 0 -12 -7 -14 -32 -9 -26 5 -30 4 -18
-5 12 -10 11 -11 -8 -7 -20 5 -23 2 -19 -14 4 -15 2 -17 -13 -9 -9 5 -21 6
-25 2 -5 -4 -5 -2 -2 4 8 14 -13 33 -43 39 -13 2 -25 7 -28 10 -3 3 -14 -3
-25 -12 -19 -17 -20 -17 -14 -1 4 11 0 21 -11 27 -12 8 7 10 70 11 50 0 90 -4
93 -10z m295 -70 l0 -80 -85 0 -85 0 0 80 0 80 85 0 85 0 0 -80z m319 3 l-1
-78 -15 63 c-14 57 -17 63 -37 58 -11 -3 -27 -6 -34 -6 -8 0 -11 -7 -8 -17 2
-10 8 -37 11 -60 l7 -43 -101 0 -101 0 0 80 0 80 140 0 140 0 -1 -77z m281 -3
l0 -80 -120 0 -120 0 0 80 0 80 120 0 120 0 0 -80z m-1417 23 c-19 -7 -16 -30
5 -42 16 -10 16 -10 -1 -11 -10 0 -20 7 -23 15 -8 20 2 45 18 44 10 0 10 -2 1
-6z m104 -23 c0 -16 -4 -27 -9 -24 -4 3 -8 16 -8 30 0 13 4 24 8 24 5 0 9 -13
9 -30z m352 -8 c-12 -5 -39 17 -39 30 0 5 11 1 24 -9 13 -10 20 -20 15 -21z
m-385 12 c8 -20 -1 -34 -20 -34 -17 0 -19 16 -3 26 8 4 7 9 -2 15 -11 7 -11 9
2 9 9 0 20 -7 23 -16z m456 -37 c0 -15 26 -35 51 -40 21 -4 20 -4 -6 -6 -32
-1 -79 25 -70 39 3 4 -1 10 -7 13 -7 3 -3 4 10 4 12 -1 22 -5 22 -10z m-50
-96 c0 -9 -23 -22 -49 -27 -8 -1 -18 -9 -22 -16 -7 -11 -11 -11 -18 1 -7 11
-10 9 -16 -8 -9 -30 -19 -18 -22 25 l-2 34 65 0 c35 0 64 -4 64 -9z m110 -1
c0 -5 -8 -10 -17 -10 -16 -1 -16 -2 1 -15 19 -14 18 -15 -12 -21 -20 -4 -29
-11 -25 -18 4 -6 -1 -4 -12 4 -16 13 -16 15 -2 18 10 2 17 8 17 13 0 6 -5 7
-11 3 -10 -6 -29 12 -29 29 0 4 20 7 45 7 25 0 45 -4 45 -10z m290 -70 l0 -80
-125 0 -125 0 0 80 0 80 125 0 125 0 0 -80z m60 51 c0 -17 -4 -32 -8 -35 -5
-3 -8 11 -8 30 1 18 4 34 8 34 5 0 8 -13 8 -29z m50 23 c0 -4 -8 -13 -17 -20
-16 -12 -16 -13 -1 -8 9 3 27 0 40 -7 23 -12 23 -12 5 9 -18 20 -18 20 10 25
54 10 93 6 93 -9 0 -36 -20 -54 -60 -54 -21 0 -41 -4 -44 -9 -3 -4 8 -7 24 -5
26 3 32 -1 44 -29 7 -17 12 -35 10 -38 -2 -4 -43 -7 -91 -8 -66 -1 -85 1 -76
10 6 6 9 18 5 27 -4 11 -1 14 10 9 20 -7 30 23 16 47 -13 23 -2 66 17 66 8 0
15 -3 15 -6z m430 -74 l0 -80 -120 0 -120 0 0 80 0 80 120 0 120 0 0 -80z
m-1390 25 c14 -16 7 -45 -11 -45 -8 0 -8 4 1 15 14 17 5 35 -17 35 -12 0 -14
-7 -9 -30 3 -19 2 -29 -4 -25 -6 3 -10 19 -10 36 0 22 5 29 19 29 10 0 24 -7
31 -15z m452 -31 c2 -19 0 -37 -4 -40 -4 -3 -8 1 -9 8 0 10 -2 10 -6 1 -2 -7
-10 -13 -17 -13 -12 0 -12 42 -1 77 8 24 33 1 37 -33z m-392 6 c0 -13 -7 -20
-20 -20 -13 0 -20 7 -20 20 0 13 7 20 20 20 13 0 20 -7 20 -20z m60 -10 c0
-25 -4 -30 -22 -29 -22 0 -22 1 -3 9 16 7 17 9 3 9 -36 2 -34 41 3 41 14 0 19
-7 19 -30z m440 20 c0 -5 -5 -10 -11 -10 -5 0 -7 5 -4 10 3 6 8 10 11 10 2 0
4 -4 4 -10z m367 -16 c-3 -3 -12 -4 -19 -1 -8 3 -5 6 6 6 11 1 17 -2 13 -5z
m-367 -45 c0 -11 -4 -18 -10 -14 -5 3 -7 12 -3 20 7 21 13 19 13 -6z m-140
-86 c0 -13 -3 -14 -12 -5 -7 7 -19 12 -27 12 -8 0 -12 -3 -8 -6 5 -6 0 -15
-31 -49 -20 -22 -34 -8 -28 28 2 18 5 33 5 35 1 1 24 2 51 2 40 0 50 -3 50
-17z m138 -65 l3 -78 -44 0 c-40 0 -48 4 -73 38 -15 20 -32 40 -37 43 -5 4 -5
9 1 13 5 3 12 -1 16 -9 4 -10 18 -14 51 -13 25 1 45 6 45 10 0 9 -21 11 -59 8
-14 -1 -21 2 -17 9 4 6 2 11 -3 11 -15 0 -14 37 2 44 6 3 35 4 62 3 l50 -2 3
-77z m127 72 c11 -5 16 -9 12 -9 -14 -1 21 -31 36 -31 8 0 20 -6 26 -13 6 -8
23 -12 41 -9 17 2 30 0 30 -6 0 -6 -10 -8 -22 -6 l-23 5 23 -10 c52 -24 24
-29 -178 -35 -44 -1 -45 0 -50 34 -3 19 -4 47 -1 63 3 25 7 27 45 26 22 0 50
-4 61 -9z m445 -39 c0 -27 -3 -63 -6 -80 -6 -27 -11 -31 -40 -31 -32 0 -64 21
-64 42 0 5 7 8 15 4 17 -6 19 7 5 34 -7 12 -16 17 -27 13 -11 -4 -14 -3 -9 5
4 7 14 12 23 12 29 0 5 12 -29 14 -41 4 -58 -2 -58 -20 0 -8 -5 -14 -11 -14
-7 0 -9 -10 -7 -25 4 -18 1 -25 -10 -25 -8 0 -12 3 -9 7 10 9 -31 35 -43 28
-11 -7 -13 27 -4 63 6 21 10 22 140 22 l134 0 0 -49z m261 22 c0 -16 2 -36 4
-45 4 -23 -12 -33 -30 -18 -17 14 -50 5 -40 -10 3 -6 -1 -7 -9 -4 -9 3 -17 11
-17 18 -1 6 -2 16 -4 21 -1 6 -3 16 -3 23 -3 16 -39 16 -45 -1 -3 -8 2 -28 10
-45 15 -31 18 -32 74 -32 53 0 59 -2 59 -20 0 -19 -6 -21 -95 -19 -52 1 -95 5
-95 9 0 4 -11 5 -25 2 -18 -3 -25 0 -25 12 0 11 9 16 32 16 35 0 31 12 -5 15
-19 1 -22 8 -25 53 l-3 52 120 0 121 0 1 -27z m-1399 -35 c-5 -7 -12 -22 -14
-33 -3 -14 -6 -11 -9 13 -5 27 -2 32 14 32 14 0 17 -3 9 -12z m27 -30 c-17
-34 -19 -34 -19 -5 0 18 5 27 15 27 13 0 14 -4 4 -22z m61 7 c0 -8 -7 -15 -16
-15 -9 0 -12 -5 -8 -12 5 -10 4 -10 -6 -1 -7 6 -10 19 -7 27 8 20 37 21 37 1z
m36 6 c-17 -7 -17 -8 -2 -24 18 -18 10 -23 -13 -8 -18 12 -7 41 16 40 17 0 16
-1 -1 -8z m294 -35 c0 -7 10 -21 23 -29 l22 -16 -30 0 c-27 -1 -30 2 -30 29 0
17 3 30 8 30 4 0 7 -6 7 -14z m597 -2 c-3 -3 -12 -4 -19 -1 -8 3 -5 6 6 6 11
1 17 -2 13 -5z m-670 -24 c-1 -11 -7 -20 -14 -20 -11 0 -11 5 -3 20 6 11 13
20 15 20 2 0 3 -9 2 -20z m678 0 c-3 -5 -12 -10 -18 -10 -7 0 -6 4 3 10 19 12
23 12 15 0z m-88 -6 c-3 -3 -12 -4 -19 -1 -8 3 -5 6 6 6 11 1 17 -2 13 -5z
m-551 -64 c7 -7 20 -8 35 -3 13 5 51 8 84 8 l60 0 1 -55 c1 -101 2 -100 -131
-100 -107 0 -115 1 -115 19 0 11 6 26 14 34 11 11 12 17 3 26 -9 9 -9 16 1 31
6 11 12 27 12 35 0 17 21 20 36 5z m615 -6 c9 -11 15 -12 26 -3 7 7 16 9 20 6
3 -4 12 -2 20 4 10 9 13 8 13 0 0 -8 8 -10 20 -6 17 5 20 2 20 -21 0 -21 -3
-24 -14 -15 -11 9 -15 8 -20 -4 -3 -9 -2 -13 4 -10 10 6 33 -29 24 -38 -3 -3
-12 -3 -20 0 -8 3 -14 0 -14 -7 0 -6 5 -8 10 -5 6 3 10 0 10 -7 0 -9 3 -9 10
2 5 8 10 13 11 10 0 -3 2 -15 5 -27 3 -21 0 -22 -51 -22 -37 1 -55 5 -55 14 0
6 -10 17 -22 23 -13 6 -17 11 -10 11 17 1 15 36 -3 51 -14 12 -16 8 -13 -25 1
-22 8 -40 17 -43 12 -4 11 -7 -5 -14 -17 -7 -16 -8 4 -4 12 2 22 0 22 -5 0 -5
-29 -9 -65 -9 -74 0 -72 -4 -59 107 l7 53 48 -2 c28 0 54 -6 60 -14z m357 -4
c90 -24 27 -43 -109 -33 -68 5 -89 9 -89 21 0 10 9 13 35 10 27 -3 32 -1 23 9
-9 11 -1 13 44 9 30 -2 73 -9 96 -16z m-541 -35 c4 -5 8 -25 9 -42 1 -33 -9
-43 -22 -22 -4 8 -9 7 -15 -2 -4 -8 -13 -15 -19 -15 -5 -1 -11 -2 -12 -4 -2
-1 -10 -3 -20 -5 -19 -3 -62 41 -53 55 4 6 1 10 -4 10 -6 0 -11 5 -11 10 0 6
7 10 16 10 14 0 15 2 3 17 -13 15 -12 15 8 5 12 -7 35 -12 52 -12 25 0 31 4
31 23 1 22 1 22 15 2 8 -11 18 -24 22 -30z m-832 -4 c-19 -8 -19 -8 0 -19 17
-10 17 -11 3 -12 -9 0 -19 -6 -21 -12 -3 -7 -6 2 -6 20 -1 27 2 32 22 31 20 0
21 -1 2 -8z m37 -26 c-6 -34 -12 -32 -12 6 0 16 4 28 9 25 4 -3 6 -17 3 -31z
m56 -3 c2 -14 -2 -22 -12 -22 -19 0 -29 17 -22 36 8 22 30 12 34 -14z m73 18
c8 12 9 9 3 -10 -3 -14 -8 -27 -10 -29 -6 -6 -11 1 -18 29 -6 19 -5 22 3 10
10 -13 12 -13 22 0z m44 -19 c-14 -2 -15 -5 -4 -12 11 -7 11 -9 -3 -9 -11 0
-18 7 -18 18 0 26 11 34 28 19 13 -10 13 -12 -3 -16z m-82 -1 c3 -11 1 -20 -4
-20 -5 0 -9 9 -9 20 0 11 2 20 4 20 2 0 6 -9 9 -20z m131 12 c-6 -4 -14 -14
-17 -22 -4 -10 -6 -8 -6 8 -1 15 5 22 17 22 10 0 13 -3 6 -8z m1013 -7 c0 -10
-6 -13 -19 -9 -10 3 -25 0 -33 -6 -9 -8 -15 -8 -15 -2 0 6 12 15 28 20 37 14
39 14 39 -3z m97 -6 c5 -5 7 -11 4 -14 -5 -6 -68 23 -68 32 0 8 53 -7 64 -18z"/>
<path d="M2268 1123 c12 -2 30 -2 40 0 9 3 -1 5 -23 4 -22 0 -30 -2 -17 -4z"/>
<path d="M2338 1123 c6 -2 18 -2 25 0 6 3 1 5 -13 5 -14 0 -19 -2 -12 -5z"/>
<path d="M2895 1130 c3 -5 8 -10 11 -10 2 0 4 5 4 10 0 6 -5 10 -11 10 -5 0
-7 -4 -4 -10z"/>
<path d="M2282 967 c-15 -18 -3 -30 15 -16 10 9 13 8 13 -5 0 -9 5 -16 11 -16
17 0 6 44 -12 48 -9 1 -21 -3 -27 -11z"/>
<path d="M2295 910 c6 -10 2 -12 -14 -7 -18 4 -20 3 -10 -9 6 -7 15 -12 19 -9
5 3 11 1 15 -5 10 -16 23 -12 21 6 -1 9 -11 21 -21 26 -14 8 -16 8 -10 -2z"/>
<path d="M2222 878 c6 -16 66 -29 75 -15 3 5 1 7 -4 4 -6 -4 -13 0 -17 8 -7
18 -60 21 -54 3z"/>
<path d="M2915 952 c-14 -10 -18 -52 -5 -52 6 0 9 4 5 9 -3 5 -1 12 5 16 5 3
10 -1 10 -11 0 -13 3 -14 15 -4 8 7 15 18 15 24 0 6 -5 4 -10 -4 -8 -13 -10
-13 -10 2 0 20 -12 29 -25 20z"/>
<path d="M2841 921 c-9 -16 -8 -22 8 -31 28 -14 36 -13 21 5 -10 12 -9 15 5
15 21 0 14 24 -8 28 -8 2 -21 -6 -26 -17z"/>
<path d="M2791 873 c-10 -11 -16 -13 -19 -5 -4 13 -22 6 -22 -9 0 -17 47 -9
65 11 14 15 15 20 4 20 -8 -1 -21 -8 -28 -17z"/>
<path d="M1955 780 c-3 -6 1 -7 9 -4 18 7 21 14 7 14 -6 0 -13 -4 -16 -10z"/>
<path d="M2308 753 c6 -2 18 -2 25 0 6 3 1 5 -13 5 -14 0 -19 -2 -12 -5z"/>
<path d="M2536 727 c3 -10 9 -15 12 -12 3 3 0 11 -7 18 -10 9 -11 8 -5 -6z"/>
<path d="M1620 720 c0 -5 5 -10 10 -10 6 0 10 5 10 10 0 6 -4 10 -10 10 -5 0
-10 -4 -10 -10z"/>
<path d="M1680 720 c0 -5 5 -10 10 -10 6 0 10 5 10 10 0 6 -4 10 -10 10 -5 0
-10 -4 -10 -10z"/>
<path d="M2215 527 c-23 -18 -4 -32 23 -18 13 7 22 7 30 -1 9 -9 12 -9 12 0 0
6 -9 16 -19 22 -25 13 -24 13 -46 -3z"/>
<path d="M2820 490 c19 -13 30 -13 30 0 0 6 -10 10 -22 10 -19 0 -20 -2 -8
-10z"/>
<path d="M1995 361 c-3 -5 -1 -12 5 -16 5 -3 10 1 10 9 0 18 -6 21 -15 7z"/>
<path d="M1952 280 c0 -19 2 -27 5 -17 2 9 2 25 0 35 -3 9 -5 1 -5 -18z"/>
<path d="M2633 364 c-3 -8 -1 -20 6 -27 8 -8 11 -8 11 0 0 6 3 18 6 27 3 9 1
16 -5 16 -7 0 -14 -7 -18 -16z"/>
<path d="M1630 315 c0 -8 5 -15 10 -15 6 0 10 7 10 15 0 8 -4 15 -10 15 -5 0
-10 -7 -10 -15z"/>
<path d="M593 105 c-3 -9 -3 -18 -1 -21 3 -3 8 4 11 16 6 23 -1 27 -10 5z"/>
<path d="M626 105 c-9 -26 -7 -32 5 -12 6 10 9 21 6 23 -2 3 -7 -2 -11 -11z"/>
<path d="M2312 95 c-1 -13 2 -26 6 -29 4 -2 7 6 7 20 -2 32 -10 39 -13 9z"/>
<path d="M2210 96 c0 -7 9 -16 20 -19 11 -3 20 -4 20 -3 0 1 -9 9 -20 19 -15
13 -20 14 -20 3z"/>
<path d="M2402 85 c0 -16 2 -22 5 -12 2 9 2 23 0 30 -3 6 -5 -1 -5 -18z"/>
<path d="M777 81 c-4 -17 -3 -21 5 -13 5 5 8 16 6 23 -3 8 -7 3 -11 -10z"/>
<path d="M810 85 c0 -8 2 -15 4 -15 2 0 6 7 10 15 3 8 1 15 -4 15 -6 0 -10 -7
-10 -15z"/>
<path d="M840 81 c0 -6 4 -13 10 -16 6 -3 7 1 4 9 -7 18 -14 21 -14 7z"/>
<path d="M2340 81 c0 -5 9 -7 20 -4 11 3 20 7 20 9 0 2 -9 4 -20 4 -11 0 -20
-4 -20 -9z"/>
</g>
</svg>
