<?xml version="1.0" standalone="no"?>
<!DOCTYPE svg PUBLIC "-//W3C//DTD SVG 20010904//EN"
 "http://www.w3.org/TR/2001/REC-SVG-20010904/DTD/svg10.dtd">
<svg version="1.0" xmlns="http://www.w3.org/2000/svg"
 width="1131.000000pt" height="361.000000pt" viewBox="0 0 1131.000000 361.000000"
 preserveAspectRatio="xMidYMid meet">

<g transform="translate(0.000000,361.000000) scale(0.100000,-0.100000)"
fill="#000000" stroke="none">
<path d="M2350 3305 l0 -305 605 0 604 0 3 144 3 144 343 -367 c225 -240 338
-367 328 -369 -27 -6 -17 -18 24 -31 l40 -12 0 -204 0 -205 -40 -6 c-22 -4
-40 -10 -40 -15 0 -5 5 -9 11 -9 6 0 9 -4 7 -10 -1 -5 -165 -151 -363 -324
l-360 -315 -3 144 -3 145 -604 0 -605 0 0 -147 -1 -148 -25 29 c-14 15 -26 27
-27 25 -1 -2 -10 -19 -19 -36 l-17 -33 44 0 45 0 0 -150 0 -150 605 0 605 0 0
153 1 152 366 320 c202 176 370 321 374 323 4 2 9 -5 11 -15 4 -14 8 -10 20
17 l16 35 1 -42 1 -43 605 0 605 0 0 150 0 150 161 0 c139 0 160 -2 155 -15
-3 -8 -1 -15 5 -15 12 0 69 29 69 35 0 6 -57 35 -69 35 -6 0 -8 -7 -5 -15 5
-13 -16 -15 -155 -15 l-161 0 0 150 0 150 -605 0 -605 0 -1 -37 c-1 -38 -1
-38 -11 -10 -8 21 -13 25 -23 17 -10 -8 -90 71 -359 357 l-345 368 -1 153 0
152 -605 0 -605 0 0 -305z m1200 0 l0 -295 -595 0 -595 0 0 295 0 295 595 0
595 0 0 -295z m1950 -1000 l0 -295 -595 0 -595 0 0 295 0 295 595 0 595 0 0
-295z m-2000 -900 l0 -295 -595 0 -595 0 0 295 0 295 595 0 595 0 0 -295z"/>
<path d="M2371 3356 c-2 -17 22 -86 29 -86 10 0 42 81 36 88 -6 5 -25 -41 -27
-61 0 -7 -9 6 -19 28 -10 22 -19 36 -19 31z"/>
<path d="M2462 3348 c-14 -14 -16 -47 -4 -66 5 -7 23 -11 40 -10 26 2 32 7 32
25 0 17 -6 23 -22 23 -17 0 -19 -3 -9 -9 16 -10 6 -31 -14 -31 -16 0 -31 43
-20 59 8 14 42 14 48 1 3 -6 4 -5 3 2 -3 18 -38 22 -54 6z"/>
<path d="M2550 3339 c-19 -35 2 -70 40 -67 24 2 30 7 30 25 0 18 -5 23 -22 22
-18 -1 -19 -2 -5 -6 23 -6 16 -28 -9 -28 -13 0 -20 8 -22 28 -4 32 20 46 45
26 14 -12 16 -12 11 1 -8 25 -55 25 -68 -1z"/>
<path d="M2677 3353 c-4 -3 -7 -24 -7 -46 0 -51 7 -45 13 11 5 43 5 47 -6 35z"/>
<path d="M2839 3345 c-7 -6 2 -75 10 -75 3 0 6 16 5 35 -1 35 -6 49 -15 40z"/>
<path d="M3209 3345 c-7 -6 2 -75 10 -75 3 0 6 16 5 35 -1 35 -6 49 -15 40z"/>
<path d="M3409 3345 c-7 -6 2 -75 10 -75 3 0 6 16 5 35 -1 35 -6 49 -15 40z"/>
<path d="M2710 3325 c-26 -32 15 -75 44 -45 8 9 6 11 -11 5 -14 -4 -23 -2 -23
4 0 6 9 11 21 11 15 0 19 4 15 16 -3 9 -6 18 -6 20 0 10 -29 3 -40 -11z m35
-5 c3 -5 -1 -10 -9 -10 -9 0 -16 5 -16 10 0 6 4 10 9 10 6 0 13 -4 16 -10z"/>
<path d="M2774 3329 c-5 -9 -2 -10 9 -6 9 3 19 2 22 -2 2 -5 -4 -11 -15 -14
-32 -8 -25 -37 9 -37 27 0 28 2 22 32 -7 34 -33 49 -47 27z m31 -39 c-3 -5
-10 -10 -16 -10 -5 0 -9 5 -9 10 0 6 7 10 16 10 8 0 12 -4 9 -10z"/>
<path d="M2873 3308 c1 -26 7 -34 25 -36 20 -3 22 1 21 35 -1 35 -2 36 -8 9
-8 -40 -28 -44 -35 -7 l-6 31 3 -32z"/>
<path d="M2941 3301 c1 -28 3 -30 6 -11 3 14 9 30 14 36 5 7 3 11 -6 11 -11 0
-15 -11 -14 -36z"/>
<path d="M2981 3321 c-6 -11 -8 -27 -5 -35 7 -17 39 -22 48 -7 4 5 -3 7 -14 4
-11 -3 -20 0 -20 6 0 6 9 11 21 11 14 0 19 5 17 17 -5 25 -35 28 -47 4z m34
-1 c3 -5 -1 -10 -10 -10 -9 0 -13 5 -10 10 3 6 8 10 10 10 2 0 7 -4 10 -10z"/>
<path d="M3081 3321 c-6 -11 -8 -27 -5 -35 7 -17 39 -22 48 -7 4 5 -3 7 -14 4
-11 -3 -20 0 -20 6 0 6 9 11 21 11 14 0 19 5 17 17 -5 25 -35 28 -47 4z m34
-1 c3 -5 -1 -10 -10 -10 -9 0 -13 5 -10 10 3 6 8 10 10 10 2 0 7 -4 10 -10z"/>
<path d="M3148 3325 c7 -14 7 -27 0 -40 -9 -16 -8 -18 2 -8 9 8 18 9 25 3 8
-6 11 1 11 25 0 24 -3 31 -11 25 -7 -6 -16 -5 -24 3 -11 10 -12 8 -3 -8z"/>
<path d="M3241 3301 c1 -28 3 -30 6 -11 3 14 9 30 14 36 5 7 3 11 -6 11 -11 0
-15 -11 -14 -36z"/>
<path d="M3285 3331 c-3 -7 0 -8 9 -5 9 3 16 1 16 -5 0 -6 -7 -11 -15 -11 -8
0 -15 -9 -15 -20 0 -15 7 -20 26 -20 23 0 25 3 22 32 -3 33 -29 50 -43 29z
m30 -41 c-3 -5 -10 -10 -16 -10 -5 0 -9 5 -9 10 0 6 7 10 16 10 8 0 12 -4 9
-10z"/>
<path d="M3345 3321 c-8 -26 4 -51 26 -51 10 0 19 4 19 9 0 5 -8 8 -17 7 -12
-1 -18 6 -18 19 0 13 6 20 17 19 10 -1 15 2 12 7 -9 16 -32 10 -39 -10z"/>
<path d="M3442 3327 c-18 -21 -3 -59 22 -55 16 2 21 10 21 33 0 33 -24 45 -43
22z m35 -31 c-4 -9 -11 -16 -17 -16 -11 0 -14 33 -3 44 11 10 26 -11 20 -28z"/>
<path d="M3511 3303 c1 -28 3 -31 6 -13 3 14 10 31 15 38 8 9 6 12 -6 12 -12
0 -16 -9 -15 -37z"/>
<path d="M4369 2409 c-24 -46 29 -93 61 -54 8 9 8 15 2 15 -6 0 -12 -5 -14
-12 -3 -7 -12 -9 -22 -5 -12 5 -16 15 -14 34 3 24 7 28 31 26 15 -1 25 2 22 8
-11 17 -54 10 -66 -12z"/>
<path d="M5078 2418 c-2 -7 -1 -29 3 -48 6 -35 6 -35 8 -5 2 17 4 38 6 48 4
19 -11 24 -17 5z"/>
<path d="M4709 2415 c-7 -6 2 -75 10 -75 3 0 6 16 5 35 -1 35 -6 49 -15 40z"/>
<path d="M4949 2415 c-7 -6 2 -75 10 -75 3 0 6 16 5 35 -1 35 -6 49 -15 40z"/>
<path d="M5249 2415 c-7 -6 2 -75 10 -75 3 0 6 16 5 35 -1 35 -6 49 -15 40z"/>
<path d="M4454 2396 c-10 -26 0 -51 21 -51 16 0 20 7 20 30 0 33 -30 49 -41
21z m36 -27 c0 -10 -7 -19 -15 -19 -15 0 -21 31 -9 43 11 10 24 -3 24 -24z"/>
<path d="M4521 2371 c1 -36 1 -36 8 -6 3 17 11 30 16 30 5 0 13 -13 17 -30 6
-29 6 -29 5 5 -2 29 -6 35 -24 36 -20 1 -23 -3 -22 -35z"/>
<path d="M4585 2391 c-8 -26 4 -51 26 -51 10 0 19 4 19 9 0 5 -8 8 -17 7 -12
-1 -18 6 -18 19 0 13 6 20 17 19 10 -1 15 2 12 7 -9 16 -32 10 -39 -10z"/>
<path d="M4655 2400 c-3 -6 1 -7 9 -4 9 3 16 2 16 -4 0 -5 -9 -12 -21 -15 -29
-8 -19 -31 16 -35 22 -3 27 0 21 13 -3 9 -6 25 -6 36 0 20 -24 26 -35 9z m25
-40 c0 -5 -4 -10 -10 -10 -5 0 -10 5 -10 10 0 6 5 10 10 10 6 0 10 -4 10 -10z"/>
<path d="M4750 2395 c-26 -32 15 -75 44 -45 8 9 6 11 -11 5 -14 -4 -23 -2 -23
4 0 6 9 11 21 11 15 0 19 4 15 16 -3 9 -6 18 -6 20 0 10 -29 3 -40 -11z m35
-5 c3 -5 -1 -10 -9 -10 -9 0 -16 5 -16 10 0 6 4 10 9 10 6 0 13 -4 16 -10z"/>
<path d="M4811 2371 c1 -36 1 -36 8 -6 3 17 11 30 16 30 5 0 13 -13 17 -30 6
-29 6 -29 5 5 -2 29 -6 35 -24 36 -20 1 -23 -3 -22 -35z"/>
<path d="M4885 2401 c-3 -7 0 -8 9 -5 9 3 16 1 16 -5 0 -6 -7 -11 -15 -11 -8
0 -15 -9 -15 -20 0 -15 7 -20 26 -20 23 0 25 3 22 32 -3 33 -29 50 -43 29z
m30 -41 c-3 -5 -10 -10 -16 -10 -5 0 -9 5 -9 10 0 6 7 10 16 10 8 0 12 -4 9
-10z"/>
<path d="M4981 2391 c-6 -11 -8 -27 -5 -35 7 -17 39 -22 48 -7 4 5 -3 7 -14 4
-11 -3 -20 0 -20 6 0 6 9 11 21 11 14 0 19 5 17 17 -5 25 -35 28 -47 4z m34
-1 c3 -5 -1 -10 -10 -10 -9 0 -13 5 -10 10 3 6 8 10 10 10 2 0 7 -4 10 -10z"/>
<path d="M5117 2404 c-4 -4 -7 -18 -7 -31 0 -26 26 -41 42 -25 8 8 5 9 -11 5
-12 -3 -21 -1 -21 6 0 6 9 11 21 11 14 0 19 5 17 17 -3 19 -29 29 -41 17z m28
-14 c3 -5 -1 -10 -10 -10 -9 0 -13 5 -10 10 3 6 8 10 10 10 2 0 7 -4 10 -10z"/>
<path d="M5185 2401 c-3 -7 0 -8 9 -5 9 3 16 1 16 -5 0 -6 -7 -11 -15 -11 -8
0 -15 -9 -15 -20 0 -15 7 -20 26 -20 23 0 25 3 22 32 -3 33 -29 50 -43 29z
m30 -41 c-3 -5 -10 -10 -16 -10 -5 0 -9 5 -9 10 0 6 7 10 16 10 8 0 12 -4 9
-10z"/>
<path d="M5282 2378 c-2 -34 0 -38 23 -38 22 0 25 4 24 38 -1 35 -2 35 -8 8
-9 -42 -29 -44 -34 -4 l-4 33 -1 -37z"/>
<path d="M5351 2373 c1 -28 3 -31 6 -13 3 14 10 31 15 38 8 9 6 12 -6 12 -12
0 -16 -9 -15 -37z"/>
<path d="M5390 2395 c-26 -32 15 -75 44 -45 8 9 6 11 -11 5 -14 -4 -23 -2 -23
4 0 6 9 11 21 11 15 0 19 4 15 16 -3 9 -6 18 -6 20 0 10 -29 3 -40 -11z m35
-5 c3 -5 -1 -10 -9 -10 -9 0 -16 5 -16 10 0 6 4 10 9 10 6 0 13 -4 16 -10z"/>
<path d="M4929 2265 c-7 -6 2 -75 10 -75 3 0 6 16 5 35 -1 35 -6 49 -15 40z"/>
<path d="M4741 2259 c-1 -3 4 -21 11 -39 10 -31 12 -32 25 -15 7 11 13 28 12
39 0 17 -3 15 -11 -8 l-11 -29 -13 29 c-7 16 -13 26 -13 23z"/>
<path d="M4810 2245 c-26 -32 15 -75 44 -45 8 9 6 11 -11 5 -14 -4 -23 -2 -23
4 0 6 9 11 21 11 15 0 19 4 15 16 -3 9 -6 18 -6 20 0 10 -29 3 -40 -11z m35
-5 c3 -5 -1 -10 -9 -10 -9 0 -16 5 -16 10 0 6 4 10 9 10 6 0 13 -4 16 -10z"/>
<path d="M4877 2254 c-4 -4 -7 -18 -7 -31 0 -27 26 -41 43 -23 9 10 7 11 -10
5 -18 -5 -23 -2 -23 13 0 26 11 34 28 19 13 -10 14 -9 10 3 -5 17 -30 25 -41
14z"/>
<path d="M4970 2245 c-16 -19 -3 -55 20 -55 21 0 37 40 25 59 -9 15 -30 14
-45 -4z m37 -11 c8 -20 -13 -42 -27 -28 -12 12 -3 44 11 44 5 0 12 -7 16 -16z"/>
<path d="M5031 2221 c1 -28 3 -30 6 -11 3 14 9 30 14 36 5 7 3 11 -6 11 -11 0
-15 -11 -14 -36z"/>
<path d="M2460 1485 c0 -28 4 -44 10 -40 6 3 10 13 10 21 0 22 30 16 40 -8 7
-18 8 -14 7 22 -2 43 -3 45 -34 48 -33 3 -33 3 -33 -43z m53 20 c1 -5 -6 -11
-15 -13 -11 -2 -18 3 -18 13 0 17 30 18 33 0z"/>
<path d="M2550 1485 c0 -44 0 -45 33 -44 30 2 30 2 5 6 -16 2 -28 10 -28 18 0
8 12 16 28 18 l27 4 -27 2 c-17 0 -28 7 -28 15 0 8 12 17 28 19 25 4 25 4 -5
6 -33 1 -33 0 -33 -44z"/>
<path d="M2637 1524 c-15 -15 -6 -34 18 -40 14 -3 25 -12 25 -20 0 -16 -36
-19 -43 -4 -3 6 -4 5 -3 -2 2 -7 14 -13 27 -13 35 0 39 40 5 49 -15 3 -26 11
-26 16 0 14 23 12 39 -2 11 -11 13 -10 9 2 -5 16 -39 25 -51 14z"/>
<path d="M2711 1483 c2 -45 2 -46 8 -13 l6 35 20 -32 c11 -18 23 -33 27 -33 4
0 7 21 7 48 -2 45 -2 46 -8 12 l-7 -35 -20 32 c-10 18 -22 33 -26 33 -5 0 -7
-21 -7 -47z"/>
<path d="M2800 1485 c0 -44 0 -45 33 -44 30 2 30 2 5 6 -16 2 -28 10 -28 18 0
8 12 16 28 18 l27 4 -27 2 c-17 0 -28 7 -28 15 0 8 12 17 28 19 25 4 25 4 -5
6 -33 1 -33 0 -33 -44z"/>
<path d="M2882 1523 c12 -3 18 -17 21 -46 l4 -42 1 42 c2 30 7 43 20 46 9 3
-1 5 -23 5 -22 0 -32 -2 -23 -5z"/>
<path d="M2987 1523 c-4 -3 -7 -24 -7 -46 0 -51 7 -45 13 11 5 43 5 47 -6 35z"/>
<path d="M3149 1515 c-7 -6 2 -75 10 -75 3 0 6 16 5 35 -1 35 -6 49 -15 40z"/>
<path d="M3020 1495 c-26 -32 15 -75 44 -45 8 9 6 11 -11 5 -14 -4 -23 -2 -23
4 0 6 9 11 21 11 15 0 19 4 15 16 -3 9 -6 18 -6 20 0 10 -29 3 -40 -11z m35
-5 c3 -5 -1 -10 -9 -10 -9 0 -16 5 -16 10 0 6 4 10 9 10 6 0 13 -4 16 -10z"/>
<path d="M3084 1499 c-5 -9 -2 -10 9 -6 9 3 19 2 22 -2 2 -5 -4 -11 -15 -14
-32 -8 -25 -37 9 -37 27 0 28 2 22 32 -7 34 -33 49 -47 27z m31 -39 c-3 -5
-10 -10 -16 -10 -5 0 -9 5 -9 10 0 6 7 10 16 10 8 0 12 -4 9 -10z"/>
<path d="M3183 1478 c1 -26 7 -34 25 -36 20 -3 22 1 21 35 -1 35 -2 36 -8 9
-8 -40 -28 -44 -35 -7 l-6 31 3 -32z"/>
<path d="M3251 1471 c1 -28 3 -30 6 -11 3 14 9 30 14 36 5 7 3 11 -6 11 -11 0
-15 -11 -14 -36z"/>
<path d="M3291 1491 c-6 -11 -8 -27 -5 -35 7 -17 39 -22 48 -7 4 5 -3 7 -14 4
-11 -3 -20 0 -20 6 0 6 9 11 21 11 14 0 19 5 17 17 -5 25 -35 28 -47 4z m34
-1 c3 -5 -1 -10 -10 -10 -9 0 -13 5 -10 10 3 6 8 10 10 10 2 0 7 -4 10 -10z"/>
<path d="M2784 1356 c-11 -9 -23 -11 -29 -6 -7 6 -11 -2 -11 -25 0 -27 3 -32
13 -23 9 7 13 7 13 -1 0 -6 5 -11 10 -11 7 0 7 6 2 18 -10 19 -5 42 9 42 5 0
9 -13 9 -30 0 -16 3 -30 8 -30 8 0 8 67 0 75 -2 3 -13 -2 -24 -9z"/>
<path d="M2999 1365 c-7 -6 2 -75 10 -75 3 0 6 16 5 35 -1 35 -6 49 -15 40z"/>
<path d="M2680 1345 c-26 -32 15 -75 44 -45 8 9 6 11 -11 5 -14 -4 -23 -2 -23
4 0 6 9 11 21 11 15 0 19 4 15 16 -3 9 -6 18 -6 20 0 10 -29 3 -40 -11z m35
-5 c3 -5 -1 -10 -9 -10 -9 0 -16 5 -16 10 0 6 4 10 9 10 6 0 13 -4 16 -10z"/>
<path d="M2841 1323 c1 -28 3 -31 6 -13 3 14 10 31 15 38 8 9 6 12 -6 12 -12
0 -16 -9 -15 -37z"/>
<path d="M2885 1350 c-3 -6 1 -7 9 -4 9 3 16 2 16 -4 0 -5 -9 -12 -21 -15 -29
-8 -19 -31 16 -35 22 -3 27 0 21 13 -3 9 -6 25 -6 36 0 20 -24 26 -35 9z m25
-40 c0 -5 -4 -10 -10 -10 -5 0 -10 5 -10 10 0 6 5 10 10 10 6 0 10 -4 10 -10z"/>
<path d="M2947 1354 c-4 -4 -7 -18 -7 -31 0 -27 26 -41 43 -23 9 10 7 11 -10
5 -18 -5 -23 -2 -23 13 0 26 11 34 28 19 13 -10 14 -9 10 3 -5 17 -30 25 -41
14z"/>
<path d="M3040 1345 c-16 -19 -3 -55 20 -55 21 0 37 40 25 59 -9 15 -30 14
-45 -4z m37 -11 c8 -20 -13 -42 -27 -28 -12 12 -3 44 11 44 5 0 12 -7 16 -16z"/>
<path d="M3101 1321 c1 -28 3 -30 6 -11 3 14 9 30 14 36 5 7 3 11 -6 11 -11 0
-15 -11 -14 -36z"/>
<path d="M2232 3291 c-10 -6 -10 -10 3 -21 8 -7 15 -19 15 -26 0 -25 16 -15
33 21 l17 35 -28 0 c-15 0 -33 -4 -40 -9z"/>
<path d="M1720 2885 l-515 -375 -602 0 -603 0 0 -305 0 -305 601 0 601 0 510
-231 c280 -127 511 -229 513 -227 2 2 -224 107 -503 234 l-507 230 -2 300 -2
299 510 370 c454 329 529 385 517 385 -2 0 -235 -169 -518 -375z m-520 -680
l0 -295 -595 0 -595 0 0 295 0 295 595 0 595 0 0 -295z"/>
<path d="M290 2285 c0 -25 5 -45 10 -45 6 0 10 20 10 45 0 25 -4 45 -10 45 -5
0 -10 -20 -10 -45z"/>
<path d="M590 2285 c0 -25 5 -45 10 -45 6 0 10 20 10 45 0 25 -4 45 -10 45 -5
0 -10 -20 -10 -45z"/>
<path d="M529 2315 c-7 -6 2 -75 10 -75 3 0 6 16 5 35 -1 35 -6 49 -15 40z"/>
<path d="M327 2303 c-11 -10 -8 -63 3 -63 6 0 10 14 10 30 0 40 17 38 29 -2 7
-24 9 -27 10 -11 1 33 -9 53 -28 53 -10 0 -21 -3 -24 -7z"/>
<path d="M390 2261 c0 -25 4 -41 8 -35 4 6 15 13 25 17 28 10 19 62 -10 63
-21 1 -23 -3 -23 -45z m40 8 c0 -20 -15 -26 -25 -9 -9 15 3 43 15 35 5 -3 10
-15 10 -26z"/>
<path d="M462 2278 c-2 -34 0 -38 23 -38 22 0 25 4 24 38 -1 35 -2 35 -8 8 -9
-42 -29 -44 -34 -4 l-4 33 -1 -37z"/>
<path d="M627 2303 c-11 -10 -8 -63 3 -63 6 0 10 11 10 24 0 38 20 42 21 4 l1
-33 7 30 c8 38 24 38 33 -1 6 -28 6 -27 5 6 -2 32 -4 35 -38 37 -19 2 -39 0
-42 -4z"/>
<path d="M735 2300 c-3 -6 1 -7 9 -4 9 3 16 2 16 -4 0 -5 -9 -12 -21 -15 -29
-8 -19 -31 16 -35 22 -3 27 0 21 13 -3 9 -6 25 -6 36 0 20 -24 26 -35 9z m25
-40 c0 -5 -4 -10 -10 -10 -5 0 -10 5 -10 10 0 6 5 10 10 10 6 0 10 -4 10 -10z"/>
<path d="M796 2303 c-15 -15 -5 -55 14 -60 11 -3 17 -9 15 -14 -3 -4 -13 -6
-23 -3 -14 5 -14 4 -3 -4 25 -18 41 -2 41 42 0 34 -4 42 -19 43 -10 1 -22 -1
-25 -4z m31 -37 c-4 -9 -11 -16 -17 -16 -11 0 -14 33 -3 44 11 10 26 -11 20
-28z"/>
<path d="M861 2291 c-6 -11 -8 -27 -5 -35 7 -17 39 -22 48 -7 4 5 -3 7 -14 4
-11 -3 -20 0 -20 6 0 6 9 11 21 11 14 0 19 5 17 17 -5 25 -35 28 -47 4z m34
-1 c3 -5 -1 -10 -10 -10 -9 0 -13 5 -10 10 3 6 8 10 10 10 2 0 7 -4 10 -10z"/>
<path d="M308 2155 c-8 -18 -8 -33 0 -57 l12 -33 -5 33 c-2 17 0 43 5 57 12
32 3 33 -12 0z"/>
<path d="M347 2173 c-13 -12 -7 -25 6 -14 18 14 30 2 16 -16 -9 -9 -8 -13 0
-13 6 0 11 -7 11 -15 0 -18 -26 -20 -33 -2 -3 7 -6 4 -6 -6 -1 -14 5 -18 22
-15 38 5 35 87 -4 88 -3 0 -9 -3 -12 -7z"/>
<path d="M447 2173 c-13 -13 -7 -25 7 -14 11 9 16 9 22 0 4 -8 -1 -18 -14 -27
-31 -20 -28 -42 6 -41 l27 1 -25 7 -25 7 23 15 c26 16 29 44 6 53 -19 7 -19 7
-27 -1z"/>
<path d="M517 2173 c-14 -13 -7 -41 11 -39 9 0 17 -6 17 -14 0 -8 -8 -14 -17
-14 -10 1 -18 -3 -18 -8 0 -5 10 -8 23 -6 30 4 36 44 8 53 -26 8 -27 22 -3 28
14 4 14 5 1 6 -9 0 -19 -2 -22 -6z"/>
<path d="M580 2159 c-16 -30 -4 -69 21 -69 30 0 36 30 10 52 -21 16 -20 23 2
19 4 0 7 4 7 9 0 18 -29 10 -40 -11z m38 -41 c-6 -18 -28 -21 -28 -4 0 9 7 16
16 16 9 0 14 -5 12 -12z"/>
<path d="M680 2165 c-14 -17 0 -21 17 -4 6 6 13 7 17 1 3 -5 -6 -20 -19 -32
-33 -31 -31 -40 8 -39 23 1 26 3 10 6 -28 5 -29 14 -3 31 24 15 26 38 4 46
-21 8 -20 8 -34 -9z"/>
<path d="M747 2173 c-15 -14 -7 -44 10 -41 10 2 19 -5 21 -16 3 -15 0 -18 -18
-13 -16 4 -20 3 -12 -5 16 -16 42 -2 42 22 0 12 -9 24 -22 29 l-23 9 25 10
c22 10 23 11 4 11 -11 1 -24 -2 -27 -6z"/>
<path d="M824 2172 c-34 -22 -16 -93 20 -79 23 9 20 44 -4 52 -11 4 -18 10
-15 15 3 5 13 6 22 3 11 -4 14 -3 9 5 -8 14 -16 15 -32 4z m18 -64 c-15 -15
-26 -4 -18 18 5 13 9 15 18 6 9 -9 9 -15 0 -24z"/>
<path d="M880 2158 c5 -16 7 -43 5 -60 -4 -26 -3 -29 4 -13 14 30 13 59 -4 81
-14 18 -14 17 -5 -8z"/>
<path d="M6258 3103 c29 -2 74 -2 100 0 26 2 2 3 -53 3 -55 0 -76 -1 -47 -3z"/>
<path d="M7958 3103 c29 -2 74 -2 100 0 26 2 2 3 -53 3 -55 0 -76 -1 -47 -3z"/>
<path d="M7526 2335 c5 -13 -47 -15 -412 -18 l-419 -2 419 -3 c367 -2 417 -4
412 -17 -3 -8 -1 -15 5 -15 12 0 69 29 69 35 0 6 -57 35 -69 35 -6 0 -8 -7 -5
-15z"/>
<path d="M10979 2345 c-7 -6 2 -75 10 -75 3 0 6 16 5 35 -1 35 -6 49 -15 40z"/>
<path d="M11139 2345 c-7 -6 2 -75 10 -75 3 0 6 16 5 35 -1 35 -6 49 -15 40z"/>
<path d="M10626 2325 c5 -13 -52 -15 -462 -18 l-469 -2 469 -3 c411 -2 467 -4
462 -17 -3 -8 -1 -15 5 -15 12 0 69 29 69 35 0 6 -57 35 -69 35 -6 0 -8 -7 -5
-15z"/>
<path d="M10844 2326 c-10 -26 0 -51 21 -51 16 0 20 7 20 30 0 33 -30 49 -41
21z m36 -27 c0 -10 -7 -19 -15 -19 -15 0 -21 31 -9 43 11 10 24 -3 24 -24z"/>
<path d="M10912 2308 c-2 -34 0 -38 23 -38 22 0 25 4 24 38 -1 35 -2 35 -8 8
-9 -42 -29 -44 -34 -4 l-4 33 -1 -37z"/>
<path d="M11010 2293 c0 -26 4 -43 8 -37 4 6 15 13 25 17 27 10 19 61 -10 65
-21 3 -23 -1 -23 -45z m37 3 c-4 -9 -11 -16 -17 -16 -11 0 -14 33 -3 44 11 10
26 -11 20 -28z"/>
<path d="M9320 2315 c11 -13 -43 -15 -456 -18 l-469 -2 469 -3 c415 -2 467 -4
456 -17 -9 -11 -9 -15 -1 -15 14 0 71 28 71 35 0 7 -57 35 -71 35 -8 0 -8 -4
1 -15z"/>
<path d="M11070 2316 c0 -30 13 -46 36 -46 20 0 24 5 24 30 0 17 -4 30 -10 30
-5 0 -10 -11 -10 -25 0 -14 -4 -25 -10 -25 -5 0 -10 11 -10 25 0 14 -4 25 -10
25 -5 0 -10 -6 -10 -14z"/>
<path d="M6258 1303 c29 -2 74 -2 100 0 26 2 2 3 -53 3 -55 0 -76 -1 -47 -3z"/>
<path d="M7958 1303 c29 -2 74 -2 100 0 26 2 2 3 -53 3 -55 0 -76 -1 -47 -3z"/>
<path d="M6102 768 c-2 -46 -1 -48 26 -47 22 1 23 2 5 6 -18 3 -23 13 -26 46
l-4 42 -1 -47z"/>
<path d="M6463 765 c0 -27 2 -38 4 -22 2 15 2 37 0 50 -2 12 -4 0 -4 -28z"/>
<path d="M6163 755 c0 -22 2 -30 4 -17 2 12 2 30 0 40 -3 9 -5 -1 -4 -23z"/>
<path d="M6191 751 c1 -36 1 -36 8 -6 3 17 11 30 16 30 5 0 13 -13 17 -30 6
-29 6 -29 5 5 -2 29 -6 35 -24 36 -20 1 -23 -3 -22 -35z"/>
<path d="M6260 775 c-26 -32 15 -75 44 -45 8 9 6 11 -11 5 -14 -4 -23 -2 -23
4 0 6 9 11 21 11 15 0 19 4 15 16 -3 9 -6 18 -6 20 0 10 -29 3 -40 -11z m35
-5 c3 -5 -1 -10 -9 -10 -9 0 -16 5 -16 10 0 6 4 10 9 10 6 0 13 -4 16 -10z"/>
<path d="M6324 779 c-5 -9 -2 -10 9 -6 9 3 19 2 22 -2 2 -5 -4 -11 -15 -14
-32 -8 -25 -37 9 -37 27 0 28 2 22 32 -7 34 -33 49 -47 27z m31 -39 c-3 -5
-10 -10 -16 -10 -5 0 -9 5 -9 10 0 6 7 10 16 10 8 0 12 -4 9 -10z"/>
<path d="M6391 751 c1 -28 3 -30 6 -11 3 14 9 30 14 36 5 7 3 11 -6 11 -11 0
-15 -11 -14 -36z"/>
<path d="M6495 781 c-3 -7 0 -8 9 -5 9 3 16 1 16 -5 0 -6 -7 -11 -15 -11 -8 0
-15 -9 -15 -20 0 -15 7 -20 26 -20 23 0 25 3 22 32 -3 33 -29 50 -43 29z m30
-41 c-3 -5 -10 -10 -16 -10 -5 0 -9 5 -9 10 0 6 7 10 16 10 8 0 12 -4 9 -10z"/>
<path d="M6556 769 c4 -13 8 -34 9 -46 0 -32 11 -28 24 8 16 45 13 70 -4 34
-12 -26 -13 -27 -14 -8 -1 12 -6 25 -12 29 -8 4 -9 -1 -3 -17z"/>
<path d="M6620 775 c-26 -32 15 -75 44 -45 8 9 6 11 -11 5 -14 -4 -23 -2 -23
4 0 6 9 11 21 11 15 0 19 4 15 16 -3 9 -6 18 -6 20 0 10 -29 3 -40 -11z m35
-5 c3 -5 -1 -10 -9 -10 -9 0 -16 5 -16 10 0 6 4 10 9 10 6 0 13 -4 16 -10z"/>
<path d="M6681 751 c1 -28 3 -30 6 -11 3 14 9 30 14 36 5 7 3 11 -6 11 -11 0
-15 -11 -14 -36z"/>
<path d="M5502 458 l2 -153 3 148 4 147 244 0 244 0 4 -147 3 -148 2 153 2
152 -255 0 -255 0 2 -152z"/>
<path d="M6161 463 c1 -27 4 -38 6 -25 6 29 43 31 43 2 0 -11 4 -20 8 -20 8 0
8 14 3 83 -1 4 -14 7 -31 7 -29 0 -30 -1 -29 -47z m49 22 c0 -8 -9 -15 -20
-15 -11 0 -20 7 -20 15 0 8 9 15 20 15 11 0 20 -7 20 -15z"/>
<path d="M6312 468 c-2 -46 -1 -48 26 -47 22 1 23 2 5 6 -18 3 -23 13 -26 46
l-4 42 -1 -47z"/>
<path d="M6384 470 c1 -39 4 -45 23 -48 24 -4 43 27 43 69 0 35 -19 20 -22
-18 -4 -53 -31 -51 -39 2 l-7 40 2 -45z"/>
<path d="M6247 484 c-4 -4 -7 -18 -7 -31 0 -26 26 -41 42 -25 8 8 5 9 -11 5
-12 -3 -21 -1 -21 6 0 6 9 11 21 11 14 0 19 5 17 17 -3 19 -29 29 -41 17z m28
-14 c3 -5 -1 -10 -10 -10 -9 0 -13 5 -10 10 3 6 8 10 10 10 2 0 7 -4 10 -10z"/>
<path d="M6100 166 c0 -42 2 -46 25 -46 18 0 29 8 37 26 15 33 1 58 -36 62
-25 3 -26 1 -26 -42z m49 20 c9 -11 10 -20 1 -35 -18 -34 -40 -26 -40 14 0 37
18 47 39 21z"/>
<path d="M6489 195 c-7 -6 2 -75 10 -75 3 0 6 16 5 35 -1 35 -6 49 -15 40z"/>
<path d="M6181 151 c1 -28 3 -30 6 -11 3 14 9 30 14 36 5 7 3 11 -6 11 -11 0
-15 -11 -14 -36z"/>
<path d="M6224 176 c-10 -26 0 -51 21 -51 16 0 20 7 20 30 0 33 -30 49 -41 21z
m36 -27 c0 -10 -7 -19 -15 -19 -15 0 -21 31 -9 43 11 10 24 -3 24 -24z"/>
<path d="M6290 143 c0 -26 4 -43 8 -37 4 6 15 13 25 17 27 10 19 61 -10 65
-21 3 -23 -1 -23 -45z m37 3 c-4 -9 -11 -16 -17 -16 -11 0 -14 33 -3 44 11 10
26 -11 20 -28z"/>
<path d="M6360 175 c-16 -19 -3 -55 20 -55 21 0 37 40 25 59 -9 15 -30 14 -45
-4z m37 -11 c8 -20 -13 -42 -27 -28 -12 12 -3 44 11 44 5 0 12 -7 16 -16z"/>
<path d="M6423 158 c1 -26 7 -34 25 -36 20 -3 22 1 21 35 -1 35 -2 36 -8 9 -8
-40 -28 -44 -35 -7 l-6 31 3 -32z"/>
</g>
</svg>
