<?xml version="1.0" standalone="no"?>
<!DOCTYPE svg PUBLIC "-//W3C//DTD SVG 20010904//EN"
 "http://www.w3.org/TR/2001/REC-SVG-20010904/DTD/svg10.dtd">
<svg version="1.0" xmlns="http://www.w3.org/2000/svg"
 width="1468.000000pt" height="764.000000pt" viewBox="0 0 1468.000000 764.000000"
 preserveAspectRatio="xMidYMid meet">

<g transform="translate(0.000000,764.000000) scale(0.100000,-0.100000)"
fill="#000000" stroke="none">
<path d="M1075 6761 c-36 -15 -55 -47 -65 -107 -11 -66 -4 -152 16 -202 11
-28 45 -52 75 -52 18 0 9 39 -11 45 -29 9 -43 69 -39 165 4 75 6 84 32 104 15
12 27 29 27 39 0 19 -5 20 -35 8z"/>
<path d="M1340 6749 c0 -10 9 -23 20 -29 28 -15 43 -83 37 -169 -4 -65 -8 -78
-31 -97 -49 -43 -24 -74 27 -33 37 28 50 81 46 187 -4 101 -23 140 -72 153
-22 6 -27 4 -27 -12z"/>
<path d="M1577 6733 c-16 -16 -4 -23 38 -23 l45 0 0 -126 c0 -96 3 -125 13
-122 8 3 13 40 15 126 l3 122 39 0 c29 0 40 4 40 15 0 12 -17 15 -93 15 -52 0
-97 -3 -100 -7z"/>
<path d="M2150 6719 c0 -25 33 -22 38 4 2 12 -3 17 -17 17 -15 0 -21 -6 -21
-21z"/>
<path d="M2490 6719 c0 -25 33 -22 38 4 2 12 -3 17 -17 17 -15 0 -21 -6 -21
-21z"/>
<path d="M1183 6660 c-12 -5 -27 -18 -33 -29 -9 -18 -8 -21 10 -21 12 0 30 5
41 11 24 12 59 3 59 -16 0 -8 -15 -17 -37 -21 -67 -12 -93 -31 -93 -71 0 -43
67 -67 110 -40 17 10 22 9 29 -2 5 -8 16 -11 25 -8 12 5 16 21 16 71 0 80 -14
112 -53 126 -35 12 -44 12 -74 0z m61 -147 c-22 -16 -60 -17 -70 -2 -9 15 9
30 48 38 39 8 52 -14 22 -36z"/>
<path d="M1970 6657 c-14 -7 -26 -21 -28 -31 -4 -18 -3 -18 26 -1 34 20 76 15
86 -12 8 -20 -9 -33 -44 -33 -14 0 -40 -9 -57 -20 -40 -24 -44 -61 -11 -84 28
-20 55 -20 91 -2 24 13 27 13 27 0 0 -9 6 -14 13 -12 16 6 21 103 8 150 -9 27
-19 39 -43 47 -38 14 -37 14 -68 -2z m90 -112 c0 -28 -39 -56 -73 -53 -65 6
-24 67 46 68 17 0 27 -5 27 -15z"/>
<path d="M2298 6654 c-16 -8 -28 -10 -28 -4 0 5 -7 10 -15 10 -13 0 -15 -15
-13 -97 2 -66 7 -98 16 -101 9 -3 12 15 12 65 0 80 17 113 58 113 48 0 57 -13
62 -96 3 -49 10 -79 18 -82 17 -5 16 147 -2 170 -11 16 -57 39 -74 38 -4 -1
-19 -8 -34 -16z"/>
<path d="M2638 6654 c-16 -8 -28 -10 -28 -4 0 5 -7 10 -15 10 -13 0 -15 -15
-13 -97 2 -66 7 -98 16 -101 9 -3 12 15 12 65 0 80 17 113 58 113 48 0 57 -13
62 -96 3 -49 10 -79 18 -82 17 -5 16 147 -2 170 -11 16 -57 39 -74 38 -4 -1
-19 -8 -34 -16z"/>
<path d="M2879 6659 c-51 -19 -70 -110 -35 -163 18 -29 74 -43 104 -27 31 16
35 14 28 -16 -13 -54 -63 -69 -109 -33 -30 24 -37 25 -37 6 0 -44 113 -63 150
-26 18 18 20 33 20 140 0 73 -4 120 -10 120 -5 0 -10 -5 -10 -10 0 -6 -13 -4
-30 5 -33 17 -35 17 -71 4z m77 -33 c14 -11 19 -26 19 -59 0 -54 -18 -77 -60
-77 -42 0 -60 23 -60 77 0 48 20 73 60 73 12 0 30 -6 41 -14z"/>
<path d="M1782 6563 c2 -66 7 -98 16 -101 9 -3 12 16 12 71 0 80 15 107 58
107 12 0 22 5 22 10 0 14 -54 12 -68 -2 -9 -9 -12 -9 -12 0 0 7 -7 12 -15 12
-13 0 -15 -15 -13 -97z"/>
<path d="M2152 6563 c2 -66 7 -98 16 -101 9 -3 12 21 12 97 0 84 -3 101 -15
101 -13 0 -15 -15 -13 -97z"/>
<path d="M2492 6563 c2 -66 7 -98 16 -101 9 -3 12 21 12 97 0 84 -3 101 -15
101 -13 0 -15 -15 -13 -97z"/>
<path d="M10880 5680 l0 -60 -3680 0 c-3498 0 -3680 -1 -3680 -17 0 -17 181
-18 3680 -15 l3680 3 0 -56 c0 -30 2 -55 5 -55 10 0 255 125 255 130 0 5 -245
130 -255 130 -3 0 -5 -27 -5 -60z"/>
<path d="M1970 5695 c0 -10 10 -15 30 -15 l30 0 0 -90 c0 -73 3 -90 15 -90 12
0 15 17 15 90 l0 90 30 0 c20 0 30 5 30 15 0 12 -15 15 -75 15 -60 0 -75 -3
-75 -15z"/>
<path d="M2205 5700 c-10 -15 -75 -183 -75 -192 0 -17 29 -7 35 12 10 31 100
29 125 -2 36 -44 33 -6 -6 90 -37 92 -61 121 -79 92z m40 -76 c21 -51 20 -54
-20 -54 -19 0 -35 4 -35 9 0 13 29 81 35 81 3 0 12 -16 20 -36z"/>
<path d="M2405 5698 c-34 -18 -45 -40 -45 -91 0 -60 11 -81 49 -97 62 -25 121
10 121 72 0 37 -1 38 -35 38 -24 0 -35 -5 -35 -15 0 -8 9 -15 20 -15 26 0 27
-36 1 -50 -31 -16 -59 -12 -75 12 -32 46 -9 128 36 128 11 0 33 -8 49 -17 31
-18 43 -15 34 9 -13 33 -81 48 -120 26z"/>
<path d="M12530 5284 c0 -96 3 -125 13 -122 7 3 13 29 15 68 3 73 13 90 52 90
39 0 49 -17 52 -90 2 -39 8 -65 16 -68 21 -7 16 131 -6 158 -19 23 -62 30 -94
16 -16 -7 -18 -3 -18 33 0 30 -4 41 -15 41 -13 0 -15 -21 -15 -126z"/>
<path d="M12750 5395 c0 -8 7 -15 15 -15 8 0 15 7 15 15 0 8 -7 15 -15 15 -8
0 -15 -7 -15 -15z"/>
<path d="M11861 5341 c-7 -5 -22 -6 -32 -4 -18 5 -19 -1 -19 -87 0 -69 3 -91
13 -88 7 3 13 29 15 68 3 71 13 90 48 90 32 0 44 -27 44 -99 0 -34 4 -61 10
-61 6 0 10 24 10 54 0 79 13 106 50 106 37 0 50 -27 50 -106 0 -30 5 -54 10
-54 17 0 12 146 -5 164 -25 25 -54 29 -81 11 -22 -14 -27 -14 -46 0 -25 17
-46 19 -67 6z"/>
<path d="M12164 5340 c-25 -10 -39 -28 -30 -37 3 -4 17 -1 30 6 33 18 70 11
74 -15 3 -18 -3 -22 -38 -27 -23 -3 -50 -13 -61 -23 -48 -43 -1 -100 63 -76
23 8 35 9 45 1 9 -9 14 -7 19 5 11 28 -1 136 -17 151 -19 19 -59 26 -85 15z
m74 -112 c-4 -31 -50 -53 -78 -38 -12 6 -19 17 -17 23 5 16 47 37 75 37 19 0
23 -5 20 -22z"/>
<path d="M12380 5343 c-47 -17 -69 -71 -50 -126 11 -34 43 -57 80 -57 23 0 78
45 68 56 -5 4 -16 0 -25 -8 -50 -42 -103 -22 -103 38 0 54 15 74 56 74 22 0
37 -6 40 -15 6 -16 34 -21 34 -7 0 26 -68 56 -100 45z"/>
<path d="M12900 5341 c-8 -6 -25 -8 -37 -4 -23 5 -23 4 -23 -87 0 -69 3 -91
13 -88 7 3 13 29 15 68 3 73 13 90 52 90 39 0 49 -17 52 -90 2 -39 8 -65 16
-68 21 -7 16 131 -5 156 -21 25 -62 36 -83 23z"/>
<path d="M13100 5337 c-71 -36 -60 -154 16 -173 30 -8 84 13 84 33 0 8 -3 13
-7 11 -5 -2 -20 -10 -35 -17 -24 -12 -31 -12 -53 3 -46 30 -32 46 40 46 71 0
79 9 54 64 -9 18 -56 48 -73 46 -1 0 -12 -6 -26 -13z m68 -29 c26 -26 13 -38
-38 -38 -34 0 -50 4 -50 13 0 21 22 37 50 37 14 0 31 -5 38 -12z"/>
<path d="M12750 5249 c0 -68 3 -90 13 -87 8 3 13 33 15 91 2 73 0 87 -13 87
-12 0 -15 -16 -15 -91z"/>
<path d="M11860 4804 c0 -96 3 -125 13 -122 8 3 13 40 15 126 2 104 0 122 -13
122 -13 0 -15 -20 -15 -126z"/>
<path d="M12690 4915 c0 -8 7 -15 15 -15 8 0 15 7 15 15 0 8 -7 15 -15 15 -8
0 -15 -7 -15 -15z"/>
<path d="M11980 4857 c-71 -36 -60 -154 16 -173 30 -8 84 13 84 33 0 8 -3 13
-7 11 -5 -2 -20 -10 -35 -17 -24 -12 -31 -12 -53 3 -46 30 -32 46 40 46 71 0
79 9 54 64 -9 18 -56 48 -73 46 -1 0 -12 -6 -26 -13z m68 -29 c26 -26 13 -38
-38 -38 -34 0 -50 4 -50 13 0 21 22 37 50 37 14 0 31 -5 38 -12z"/>
<path d="M12174 4860 c-25 -10 -39 -28 -30 -37 3 -4 17 -1 30 6 33 18 70 11
74 -15 3 -18 -3 -22 -38 -27 -23 -3 -50 -13 -61 -23 -48 -43 -1 -100 63 -76
23 8 35 9 45 1 9 -9 14 -7 19 5 11 28 -1 136 -17 151 -19 19 -59 26 -85 15z
m74 -112 c-4 -31 -50 -53 -78 -38 -12 6 -19 17 -17 23 5 16 47 37 75 37 19 0
23 -5 20 -22z"/>
<path d="M12540 4861 c-8 -6 -25 -8 -37 -4 -23 5 -23 4 -23 -87 0 -69 3 -91
13 -88 7 3 13 29 15 68 3 73 13 90 52 90 39 0 49 -17 52 -90 2 -39 8 -65 16
-68 21 -7 16 131 -5 156 -21 25 -62 36 -83 23z"/>
<path d="M12840 4861 c-8 -6 -25 -8 -37 -4 -23 5 -23 4 -23 -87 0 -69 3 -91
13 -88 7 3 13 29 15 68 3 73 13 90 52 90 39 0 49 -17 52 -90 2 -39 8 -65 16
-68 21 -7 16 131 -5 156 -21 25 -62 36 -83 23z"/>
<path d="M13040 4857 c-50 -26 -64 -112 -24 -152 22 -22 64 -30 85 -16 25 15
29 14 29 -8 0 -44 -72 -70 -100 -36 -16 19 -30 19 -30 0 0 -36 104 -49 133
-17 14 15 17 40 17 124 0 103 -1 106 -22 106 -13 0 -32 3 -43 6 -11 3 -31 0
-45 -7z m74 -33 c16 -16 21 -59 10 -89 -11 -27 -53 -38 -80 -20 -26 17 -33 70
-14 106 13 23 62 26 84 3z"/>
<path d="M12340 4768 c0 -67 3 -89 13 -86 7 3 13 29 15 68 3 72 13 90 48 90
13 0 24 4 24 10 0 5 -22 9 -50 9 l-50 -2 0 -89z"/>
<path d="M12690 4769 c0 -68 3 -90 13 -87 8 3 13 33 15 91 2 73 0 87 -13 87
-12 0 -15 -16 -15 -91z"/>
<path d="M11930 4324 c0 -96 3 -125 13 -122 8 3 13 40 15 126 2 104 0 122 -13
122 -13 0 -15 -20 -15 -126z"/>
<path d="M12570 4435 c0 -8 7 -15 15 -15 8 0 15 7 15 15 0 8 -7 15 -15 15 -8
0 -15 -7 -15 -15z"/>
<path d="M12680 4419 c0 -22 -5 -32 -20 -36 -11 -3 -20 -9 -20 -14 0 -5 9 -9
20 -9 18 0 20 -7 20 -64 0 -68 7 -80 53 -91 21 -6 27 -4 27 9 0 10 -9 16 -24
16 -29 0 -36 16 -36 81 0 48 1 49 30 49 17 0 30 5 30 10 0 6 -13 10 -30 10
-28 0 -30 3 -30 35 0 19 -4 35 -10 35 -5 0 -10 -14 -10 -31z"/>
<path d="M12800 4324 c0 -96 3 -125 13 -122 7 3 13 29 15 68 3 73 13 90 52 90
39 0 49 -17 52 -90 2 -39 8 -65 16 -68 21 -7 16 131 -6 158 -19 23 -62 30 -94
16 -16 -7 -18 -3 -18 33 0 30 -4 41 -15 41 -13 0 -15 -21 -15 -126z"/>
<path d="M11764 4380 c-25 -10 -39 -28 -30 -37 3 -4 17 -1 30 6 33 18 70 11
74 -15 3 -18 -3 -22 -38 -27 -23 -3 -50 -13 -61 -23 -48 -43 -1 -100 63 -76
23 8 35 9 45 1 9 -9 14 -7 19 5 11 28 -1 136 -17 151 -19 19 -59 26 -85 15z
m74 -112 c-4 -31 -50 -53 -78 -38 -12 6 -19 17 -17 23 5 16 47 37 75 37 19 0
23 -5 20 -22z"/>
<path d="M12050 4377 c-50 -26 -64 -112 -24 -152 22 -22 64 -30 85 -16 25 15
29 14 29 -8 0 -44 -72 -70 -100 -36 -16 19 -30 19 -30 0 0 -36 104 -49 133
-17 14 15 17 40 17 124 0 103 -1 106 -22 106 -13 0 -32 3 -43 6 -11 3 -31 0
-45 -7z m74 -33 c16 -16 21 -59 10 -89 -11 -27 -53 -38 -80 -20 -26 17 -33 70
-14 106 13 23 62 26 84 3z"/>
<path d="M12280 4383 c-47 -17 -69 -71 -50 -126 18 -57 80 -73 126 -34 23 20
27 32 27 71 0 33 -5 52 -19 65 -21 21 -61 32 -84 24z m64 -39 c16 -16 21 -59
10 -89 -11 -27 -53 -38 -80 -20 -26 17 -33 70 -14 106 13 23 62 26 84 3z"/>
<path d="M13071 4381 c-7 -5 -22 -6 -32 -4 -18 5 -19 -1 -19 -87 0 -69 3 -91
13 -88 7 3 13 29 15 68 3 71 13 90 48 90 32 0 44 -27 44 -99 0 -34 4 -61 10
-61 6 0 10 24 10 54 0 79 13 106 50 106 37 0 50 -27 50 -106 0 -30 5 -54 10
-54 17 0 12 146 -5 164 -25 25 -54 29 -81 11 -22 -14 -27 -14 -46 0 -25 17
-46 19 -67 6z"/>
<path d="M4560 4361 c-5 -11 -10 -29 -10 -40 0 -14 -6 -21 -20 -21 -11 0 -20
-4 -20 -10 0 -5 9 -10 20 -10 18 0 20 -7 20 -81 0 -60 3 -80 13 -77 8 3 13 31
15 81 3 74 4 77 27 77 14 0 25 5 25 10 0 6 -12 10 -26 10 -22 0 -25 4 -22 28
2 19 9 28 26 30 33 5 27 22 -8 22 -19 0 -33 -7 -40 -19z"/>
<path d="M12440 4288 c0 -67 3 -89 13 -86 7 3 13 29 15 68 3 72 13 90 48 90
13 0 24 4 24 10 0 5 -22 9 -50 9 l-50 -2 0 -89z"/>
<path d="M12570 4289 c0 -68 3 -90 13 -87 8 3 13 33 15 91 2 73 0 87 -13 87
-12 0 -15 -16 -15 -91z"/>
<path d="M5090 4339 c0 -22 -5 -32 -20 -36 -11 -3 -20 -9 -20 -14 0 -5 9 -9
20 -9 18 0 20 -7 20 -64 0 -68 7 -80 53 -91 21 -6 27 -4 27 9 0 10 -9 16 -24
16 -29 0 -36 16 -36 81 0 48 1 49 30 49 17 0 30 5 30 10 0 6 -13 10 -30 10
-28 0 -30 3 -30 35 0 19 -4 35 -10 35 -5 0 -10 -14 -10 -31z"/>
<path d="M4710 4297 c-71 -36 -60 -154 16 -173 30 -8 84 13 84 33 0 8 -3 13
-7 11 -5 -2 -20 -10 -35 -17 -24 -12 -31 -12 -53 3 -46 30 -32 46 40 46 71 0
79 9 54 64 -9 18 -56 48 -73 46 -1 0 -12 -6 -26 -13z m68 -29 c26 -26 13 -38
-38 -38 -34 0 -50 4 -50 13 0 21 22 37 50 37 14 0 31 -5 38 -12z"/>
<path d="M4904 4300 c-25 -10 -39 -28 -30 -37 3 -4 17 -1 30 6 33 18 70 11 74
-15 3 -18 -3 -22 -38 -27 -23 -3 -50 -13 -61 -23 -48 -43 -1 -100 63 -76 23 8
35 9 45 1 9 -9 14 -7 19 5 11 28 -1 136 -17 151 -19 19 -59 26 -85 15z m74
-112 c-4 -31 -50 -53 -78 -38 -12 6 -19 17 -17 23 5 16 47 37 75 37 19 0 23
-5 20 -22z"/>
<path d="M5600 4297 c-71 -36 -60 -154 16 -173 30 -8 84 13 84 33 0 8 -3 13
-7 11 -5 -2 -20 -10 -35 -17 -24 -12 -31 -12 -53 3 -46 30 -32 46 40 46 71 0
79 9 54 64 -9 18 -56 48 -73 46 -1 0 -12 -6 -26 -13z m68 -29 c26 -26 13 -38
-38 -38 -34 0 -50 4 -50 13 0 21 22 37 50 37 14 0 31 -5 38 -12z"/>
<path d="M5210 4231 c0 -63 2 -71 26 -90 30 -24 64 -27 83 -8 11 10 14 10 18
0 13 -36 23 -3 23 77 0 53 -4 90 -10 90 -6 0 -10 -27 -10 -60 0 -70 -24 -106
-63 -94 -36 10 -41 21 -45 89 -6 87 -22 83 -22 -4z"/>
<path d="M5420 4208 c0 -67 3 -89 13 -86 7 3 13 29 15 68 3 72 13 90 48 90 13
0 24 4 24 10 0 5 -22 9 -50 9 l-50 -2 0 -89z"/>
<path d="M7680 3990 l0 -210 1210 0 1210 0 0 210 0 210 -1210 0 -1210 0 0
-210z m400 0 l0 -190 -190 0 -190 0 0 190 0 190 190 0 190 0 0 -190z m400 0
l0 -190 -190 0 -190 0 0 190 0 190 190 0 190 0 0 -190z m400 0 l0 -190 -190 0
-190 0 0 190 0 190 190 0 190 0 0 -190z m400 0 l0 -190 -190 0 -190 0 0 190 0
190 190 0 190 0 0 -190z m400 0 l0 -190 -190 0 -190 0 0 190 0 190 190 0 190
0 0 -190z m400 0 l0 -190 -190 0 -190 0 0 190 0 190 190 0 190 0 0 -190z"/>
<path d="M3660 4065 l0 -55 -470 0 c-463 0 -470 0 -470 -20 0 -20 7 -20 470
-20 l470 0 0 -55 c0 -30 2 -55 5 -55 10 0 255 125 255 130 0 5 -245 130 -255
130 -3 0 -5 -25 -5 -55z"/>
<path d="M7240 4065 l0 -55 -470 0 c-463 0 -470 0 -470 -20 0 -20 7 -20 470
-20 l470 0 0 -55 c0 -30 2 -55 5 -55 10 0 255 125 255 130 0 5 -245 130 -255
130 -3 0 -5 -25 -5 -55z"/>
<path d="M10880 4065 l0 -55 -310 0 c-303 0 -310 0 -310 -20 0 -20 7 -20 310
-20 l310 0 0 -55 c0 -30 2 -55 5 -55 10 0 255 125 255 130 0 5 -245 130 -255
130 -3 0 -5 -25 -5 -55z"/>
<path d="M4780 3859 c0 -22 -5 -32 -20 -36 -11 -3 -20 -9 -20 -14 0 -5 9 -9
20 -9 18 0 20 -7 20 -64 0 -68 7 -80 53 -91 21 -6 27 -4 27 9 0 10 -9 16 -24
16 -29 0 -36 16 -36 81 0 48 1 49 30 49 17 0 30 5 30 10 0 6 -13 10 -30 10
-28 0 -30 3 -30 35 0 19 -4 35 -10 35 -5 0 -10 -14 -10 -31z"/>
<path d="M5460 3859 c0 -22 -5 -32 -20 -36 -11 -3 -20 -9 -20 -14 0 -5 9 -9
20 -9 18 0 20 -7 20 -64 0 -68 7 -80 53 -91 21 -6 27 -4 27 9 0 10 -9 16 -24
16 -29 0 -36 16 -36 81 0 48 1 49 30 49 17 0 30 5 30 10 0 6 -13 10 -30 10
-28 0 -30 3 -30 35 0 19 -4 35 -10 35 -5 0 -10 -14 -10 -31z"/>
<path d="M4400 3817 c-71 -36 -60 -154 16 -173 30 -8 84 13 84 33 0 8 -3 13
-7 11 -5 -2 -20 -10 -35 -17 -24 -12 -31 -12 -53 3 -46 30 -32 46 40 46 71 0
79 9 54 64 -9 18 -56 48 -73 46 -1 0 -12 -6 -26 -13z m68 -29 c26 -26 13 -38
-38 -38 -34 0 -50 4 -50 13 0 21 22 37 50 37 14 0 31 -5 38 -12z"/>
<path d="M5074 3820 c-25 -10 -39 -28 -30 -37 3 -4 17 -1 30 6 33 18 70 11 74
-15 3 -18 -3 -22 -38 -27 -23 -3 -50 -13 -61 -23 -48 -43 -1 -100 63 -76 23 8
35 9 45 1 9 -9 14 -7 19 5 11 28 -1 136 -17 151 -19 19 -59 26 -85 15z m74
-112 c-4 -31 -50 -53 -78 -38 -12 6 -19 17 -17 23 5 16 47 37 75 37 19 0 23
-5 20 -22z"/>
<path d="M5290 3823 c-47 -17 -69 -71 -50 -126 11 -34 43 -57 80 -57 23 0 78
45 68 56 -5 4 -16 0 -25 -8 -50 -42 -103 -22 -103 38 0 54 15 74 56 74 22 0
37 -6 40 -15 6 -16 34 -21 34 -7 0 26 -68 56 -100 45z"/>
<path d="M5630 3823 c-47 -17 -69 -71 -50 -126 18 -57 80 -73 126 -34 23 20
27 32 27 71 0 33 -5 52 -19 65 -21 21 -61 32 -84 24z m64 -39 c16 -16 21 -59
10 -89 -11 -27 -53 -38 -80 -20 -26 17 -33 70 -14 106 13 23 62 26 84 3z"/>
<path d="M4561 3803 c7 -10 22 -28 32 -40 19 -21 19 -24 3 -45 -9 -13 -23 -33
-32 -46 -29 -40 -4 -38 31 3 l33 40 35 -40 c44 -51 60 -39 18 13 -17 22 -31
43 -31 47 0 4 14 25 31 46 22 28 26 39 16 39 -9 0 -27 -15 -41 -32 l-26 -33
-28 33 c-29 34 -67 48 -41 15z"/>
<path d="M4910 3728 c0 -67 3 -89 13 -86 7 3 13 29 15 68 3 72 13 90 48 90 13
0 24 4 24 10 0 5 -22 9 -50 9 l-50 -2 0 -89z"/>
<path d="M5790 3728 c0 -67 3 -89 13 -86 7 3 13 29 15 68 3 72 13 90 48 90 13
0 24 4 24 10 0 5 -22 9 -50 9 l-50 -2 0 -89z"/>
<path d="M8246 3584 c-9 -8 -16 -26 -16 -40 0 -17 -5 -24 -20 -24 -11 0 -20
-4 -20 -10 0 -5 9 -10 20 -10 18 0 20 -7 20 -74 0 -101 18 -108 22 -9 3 77 3
78 31 81 34 4 36 22 3 22 -31 0 -36 8 -25 38 5 13 17 22 29 22 11 0 20 5 20
10 0 16 -47 12 -64 -6z"/>
<path d="M8760 3555 c0 -28 -4 -35 -20 -35 -11 0 -20 -4 -20 -10 0 -5 9 -10
20 -10 18 0 20 -7 20 -64 0 -41 5 -68 13 -75 19 -15 59 -18 64 -4 2 7 -8 13
-24 15 -27 3 -28 5 -31 66 l-3 62 31 0 c16 0 30 5 30 10 0 6 -13 10 -30 10
-28 0 -30 3 -30 35 0 19 -4 35 -10 35 -5 0 -10 -16 -10 -35z"/>
<path d="M12510 3310 l0 -250 -55 0 c-30 0 -55 -2 -55 -5 0 -10 125 -255 130
-255 5 0 130 245 130 255 0 3 -25 5 -55 5 l-55 0 0 250 c0 243 -1 250 -20 250
-19 0 -20 -7 -20 -250z"/>
<path d="M8404 3522 c-37 -5 -59 -40 -59 -89 0 -37 5 -49 28 -69 34 -29 67
-31 98 -5 31 25 19 38 -15 16 -36 -24 -85 -6 -86 32 0 8 22 13 63 15 54 3 62
6 65 24 3 24 -30 70 -55 76 -10 2 -28 2 -39 0z m64 -49 c14 -23 14 -23 -42
-23 -39 0 -56 4 -56 13 0 41 72 48 98 10z"/>
<path d="M8588 3518 c-14 -5 -29 -16 -32 -24 -6 -16 15 -19 31 -3 18 18 68 7
71 -17 3 -18 -3 -23 -41 -28 -54 -8 -82 -35 -73 -70 8 -34 50 -45 87 -23 24
13 28 13 33 0 3 -8 10 -11 16 -8 14 9 12 115 -3 144 -14 29 -52 41 -89 29z
m72 -107 c0 -38 -67 -64 -90 -35 -13 14 -11 19 9 35 31 26 81 26 81 0z"/>
<path d="M9294 3522 c-37 -5 -59 -40 -59 -89 0 -37 5 -49 28 -69 34 -29 67
-31 98 -5 31 25 19 38 -15 16 -36 -24 -85 -6 -86 32 0 8 22 13 63 15 54 3 62
6 65 24 3 24 -30 70 -55 76 -10 2 -28 2 -39 0z m64 -49 c14 -23 14 -23 -42
-23 -39 0 -56 4 -56 13 0 41 72 48 98 10z"/>
<path d="M9473 3520 c-56 -23 -43 -82 21 -94 19 -4 40 -14 47 -22 11 -14 10
-18 -6 -31 -11 -7 -29 -11 -40 -9 -11 3 -31 8 -45 12 l-25 6 24 -21 c47 -42
131 -12 117 42 -5 21 -16 29 -54 40 -35 10 -47 19 -47 33 0 16 7 19 48 17 54
-1 61 10 16 26 -18 6 -32 11 -33 10 -1 0 -11 -4 -23 -9z"/>
<path d="M8890 3455 c0 -57 3 -69 25 -90 26 -27 46 -31 76 -14 15 7 24 7 35
-2 12 -10 14 2 14 80 0 54 -4 91 -10 91 -6 0 -10 -28 -10 -65 0 -57 -3 -66
-25 -81 -51 -33 -85 5 -85 97 0 27 -4 49 -10 49 -6 0 -10 -28 -10 -65z"/>
<path d="M9102 3435 c4 -104 22 -118 26 -20 3 72 10 85 50 85 12 0 22 5 22 10
0 14 -43 13 -58 -2 -9 -9 -12 -9 -12 0 0 7 -7 12 -15 12 -13 0 -15 -14 -13
-85z"/>
<path d="M1570 3011 c0 -23 -5 -31 -22 -34 l-23 -4 23 -8 c19 -6 22 -14 22
-66 0 -55 2 -60 26 -69 32 -12 44 -13 44 -1 0 5 -11 12 -25 15 -23 6 -25 11
-25 61 0 52 1 55 25 55 14 0 25 5 25 10 0 6 -11 10 -25 10 -21 0 -25 5 -25 30
0 17 -4 30 -10 30 -5 0 -10 -13 -10 -29z"/>
<path d="M2050 3011 c0 -23 -5 -31 -22 -34 l-23 -4 23 -8 c19 -6 22 -14 22
-66 0 -55 2 -60 26 -69 32 -12 44 -13 44 -1 0 5 -11 12 -25 15 -23 6 -25 11
-25 61 0 52 1 55 25 55 14 0 25 5 25 10 0 6 -11 10 -25 10 -21 0 -25 5 -25 30
0 17 -4 30 -10 30 -5 0 -10 -13 -10 -29z"/>
<path d="M1686 2958 c-51 -73 31 -174 100 -124 25 19 12 31 -16 16 -27 -14
-66 -6 -74 16 -10 27 3 34 60 34 45 0 54 3 54 18 0 36 -29 62 -70 62 -29 0
-43 -6 -54 -22z m84 -6 c31 -25 18 -42 -30 -42 -48 0 -61 17 -30 42 12 10 26
18 30 18 4 0 18 -8 30 -18z"/>
<path d="M1859 2962 c5 -10 17 -24 25 -32 22 -17 20 -27 -9 -62 -37 -44 -30
-57 10 -18 l35 34 29 -34 c39 -47 51 -31 13 17 l-30 38 30 38 c18 22 25 37 17
37 -7 0 -24 -12 -36 -27 l-23 -28 -24 28 c-29 31 -52 37 -37 9z"/>
<path d="M12770 2221 c-5 -11 -10 -29 -10 -40 0 -14 -6 -21 -20 -21 -11 0 -20
-4 -20 -10 0 -5 9 -10 20 -10 18 0 20 -7 20 -81 0 -60 3 -80 13 -77 8 3 13 31
15 81 l3 77 34 0 35 0 0 -80 c0 -47 4 -80 10 -80 6 0 10 37 10 90 l0 90 -46 0
c-44 0 -45 1 -42 28 3 24 7 27 46 30 59 4 53 22 -8 22 -38 0 -52 -4 -60 -19z"/>
<path d="M12010 2104 c0 -96 3 -125 13 -122 8 3 13 40 15 126 2 104 0 122 -13
122 -13 0 -15 -20 -15 -126z"/>
<path d="M12650 2215 c0 -8 7 -15 15 -15 8 0 15 7 15 15 0 8 -7 15 -15 15 -8
0 -15 -7 -15 -15z"/>
<path d="M11860 2163 c-47 -17 -69 -71 -50 -126 11 -34 43 -57 80 -57 23 0 78
45 68 56 -5 4 -16 0 -25 -8 -50 -42 -103 -22 -103 38 0 54 15 74 56 74 22 0
37 -6 40 -15 6 -16 34 -21 34 -7 0 26 -68 56 -100 45z"/>
<path d="M12124 2160 c-25 -10 -39 -28 -30 -37 3 -4 17 -1 30 6 33 18 70 11
74 -15 3 -18 -3 -22 -38 -27 -23 -3 -50 -13 -61 -23 -48 -43 -1 -100 63 -76
23 8 35 9 45 1 9 -9 14 -7 19 5 11 28 -1 136 -17 151 -19 19 -59 26 -85 15z
m74 -112 c-4 -31 -50 -53 -78 -38 -12 6 -19 17 -17 23 5 16 47 37 75 37 19 0
23 -5 20 -22z"/>
<path d="M12319 2158 c-55 -19 -37 -82 26 -94 40 -7 64 -29 48 -45 -13 -13
-47 -15 -88 -5 l-30 7 24 -20 c45 -40 125 -15 119 37 -2 23 -11 30 -53 44 -36
11 -50 21 -50 35 0 22 44 30 74 14 22 -12 38 1 18 16 -20 17 -60 22 -88 11z"/>
<path d="M12499 2158 c-55 -19 -37 -82 26 -94 40 -7 64 -29 48 -45 -13 -13
-47 -15 -88 -5 l-30 7 24 -20 c45 -40 125 -15 119 37 -2 23 -11 30 -53 44 -36
11 -50 21 -50 35 0 22 44 30 74 14 22 -12 38 1 18 16 -20 17 -60 22 -88 11z"/>
<path d="M12990 2157 c-71 -36 -60 -154 16 -173 30 -8 84 13 84 33 0 8 -3 13
-7 11 -5 -2 -20 -10 -35 -17 -24 -12 -31 -12 -53 3 -46 30 -32 46 40 46 71 0
79 9 54 64 -9 18 -56 48 -73 46 -1 0 -12 -6 -26 -13z m68 -29 c26 -26 13 -38
-38 -38 -34 0 -50 4 -50 13 0 21 22 37 50 37 14 0 31 -5 38 -12z"/>
<path d="M12650 2069 c0 -68 3 -90 13 -87 8 3 13 33 15 91 2 73 0 87 -13 87
-12 0 -15 -16 -15 -91z"/>
<path d="M13150 2068 c0 -67 3 -89 13 -86 7 3 13 29 15 68 3 72 13 90 48 90
13 0 24 4 24 10 0 5 -22 9 -50 9 l-50 -2 0 -89z"/>
<path d="M12690 1749 c0 -36 -2 -40 -17 -33 -76 34 -141 -35 -113 -119 15 -48
78 -74 109 -44 11 10 14 10 18 0 3 -7 9 -13 14 -13 5 0 9 56 9 125 0 77 -4
125 -10 125 -5 0 -10 -18 -10 -41z m-16 -65 c16 -16 21 -59 10 -89 -11 -27
-53 -38 -80 -20 -26 17 -33 70 -14 106 13 23 62 26 84 3z"/>
<path d="M12970 1664 c0 -96 3 -125 13 -122 8 3 13 40 15 126 2 104 0 122 -13
122 -13 0 -15 -20 -15 -126z"/>
<path d="M12081 1721 c-7 -5 -22 -6 -32 -4 -18 5 -19 -1 -19 -87 0 -69 3 -91
13 -88 7 3 13 29 15 68 3 71 13 90 48 90 32 0 44 -27 44 -99 0 -34 4 -61 10
-61 6 0 10 24 10 54 0 79 13 106 50 106 37 0 50 -27 50 -106 0 -30 5 -54 10
-54 17 0 12 146 -5 164 -25 25 -54 29 -81 11 -22 -14 -27 -14 -46 0 -25 17
-46 19 -67 6z"/>
<path d="M12400 1723 c-47 -17 -69 -71 -50 -126 18 -57 80 -73 126 -34 23 20
27 32 27 71 0 33 -5 52 -19 65 -21 21 -61 32 -84 24z m64 -39 c16 -16 21 -59
10 -89 -11 -27 -53 -38 -80 -20 -26 17 -33 70 -14 106 13 23 62 26 84 3z"/>
<path d="M12810 1717 c-71 -36 -60 -154 16 -173 30 -8 84 13 84 33 0 8 -3 13
-7 11 -5 -2 -20 -10 -35 -17 -24 -12 -31 -12 -53 3 -46 30 -32 46 40 46 71 0
79 9 54 64 -9 18 -56 48 -73 46 -1 0 -12 -6 -26 -13z m68 -29 c26 -26 13 -38
-38 -38 -34 0 -50 4 -50 13 0 21 22 37 50 37 14 0 31 -5 38 -12z"/>
<path d="M1134 1441 c-66 -54 -75 -69 -99 -180 -21 -97 -13 -119 80 -211 74
-73 77 -75 125 -75 48 0 52 2 121 70 90 88 102 115 88 188 -10 51 -20 64 -108
156 -72 76 -102 101 -121 101 -15 0 -50 -20 -86 -49z m251 -166 c14 -13 25
-33 25 -43 0 -24 -37 -72 -56 -72 -8 0 -14 -10 -14 -26 0 -36 -16 -61 -50 -79
-38 -19 -65 -19 -100 2 -30 17 -50 51 -50 83 0 11 -6 20 -14 20 -25 0 -58 51
-51 80 12 51 36 60 167 60 113 0 120 -1 143 -25z"/>
<path d="M1135 1230 c-10 -17 17 -21 115 -18 64 2 95 7 98 16 5 15 -203 18
-213 2z"/>
<path d="M1207 1164 c-16 -16 -5 -24 34 -24 28 0 39 4 37 13 -5 13 -60 22 -71
11z"/>
<path d="M2190 1231 c0 -92 3 -111 15 -111 9 0 15 9 15 25 0 14 4 25 8 25 5 0
19 -11 32 -25 13 -14 33 -25 44 -25 17 0 13 7 -23 44 l-43 44 36 27 c20 15 36
31 36 36 0 16 -22 9 -56 -16 l-33 -25 -3 52 c-2 30 -8 53 -15 56 -10 3 -13
-23 -13 -107z"/>
<path d="M1600 1225 c0 -85 3 -105 15 -105 11 0 15 16 17 68 l3 67 23 -42 c12
-24 29 -43 37 -43 7 0 25 19 39 43 l26 42 0 -68 c0 -60 2 -68 18 -65 15 3 17
16 17 103 0 86 -2 100 -17 103 -12 2 -26 -14 -48 -57 -17 -34 -32 -61 -35 -61
-3 0 -18 27 -35 60 -46 92 -60 82 -60 -45z"/>
<path d="M2654 1317 c-3 -8 -4 -54 -2 -103 l3 -89 73 -3 c57 -2 73 0 70 10 -3
8 -25 14 -56 16 l-52 3 0 90 c0 73 -3 89 -15 89 -9 0 -18 -6 -21 -13z"/>
<path d="M1849 1259 c-30 -30 -24 -105 12 -132 77 -57 159 62 92 135 -22 25
-78 23 -104 -3z m93 -35 c22 -48 -30 -105 -67 -74 -18 15 -20 71 -3 88 21 21
57 14 70 -14z"/>
<path d="M2004 1271 c-2 -2 -4 -38 -4 -78 0 -66 2 -74 18 -71 13 2 18 16 22
63 4 53 8 60 28 63 38 6 52 -15 52 -74 0 -41 4 -54 15 -54 12 0 15 14 15 65 0
56 -3 66 -23 80 -21 13 -111 18 -123 6z"/>
<path d="M2342 1257 c-68 -72 24 -189 99 -128 28 22 18 41 -11 23 -25 -15 -53
-15 -68 0 -21 21 -13 27 46 30 56 3 57 3 55 32 -5 64 -77 89 -121 43z m86 -29
c3 -15 -4 -18 -37 -18 -43 0 -50 7 -29 28 18 18 62 11 66 -10z"/>
<path d="M2478 1274 c-4 -3 8 -35 24 -71 28 -60 30 -69 19 -100 -13 -35 -10
-50 8 -39 10 7 101 192 101 207 0 5 -6 9 -14 9 -7 0 -25 -26 -39 -57 l-26 -57
-25 57 c-23 53 -35 65 -48 51z"/>
<path d="M2832 1257 c-68 -72 24 -189 99 -128 28 22 18 41 -11 23 -25 -15 -53
-15 -68 0 -21 21 -13 27 46 30 56 3 57 3 55 32 -5 64 -77 89 -121 43z m86 -29
c3 -15 -4 -18 -37 -18 -43 0 -50 7 -29 28 18 18 62 11 66 -10z"/>
<path d="M2995 1260 c-23 -25 -12 -37 19 -21 26 15 57 12 63 -6 2 -6 -11 -14
-29 -18 -75 -16 -101 -60 -53 -91 17 -11 33 -14 52 -9 16 5 36 7 46 6 26 -3
25 119 -1 142 -25 23 -75 21 -97 -3z m85 -79 c0 -18 -33 -42 -53 -39 -29 4
-33 26 -5 37 30 13 58 13 58 2z"/>
<path d="M3145 1272 c-3 -3 -5 -38 -5 -79 0 -58 3 -73 15 -73 11 0 15 12 15
46 0 59 14 84 46 84 16 0 24 5 22 13 -5 12 -82 19 -93 9z"/>
<path d="M3260 1198 c0 -63 3 -78 15 -78 11 0 15 13 15 53 0 58 12 77 47 77
29 0 43 -27 43 -84 0 -34 4 -46 15 -46 19 0 21 90 4 123 -17 32 -28 36 -86 35
l-53 -2 0 -78z"/>
</g>
</svg>
